<svg width="9" height="6" viewBox="0 0 9 6" fill="none" xmlns="http://www.w3.org/2000/svg">
<g clip-path="url(#clip0_2057_8394)">
<path d="M4.22798 5.84443L0.288234 1.55448C0.195984 1.45403 0.146484 1.32173 0.146484 1.18208C0.146484 1.04243 0.195984 0.907681 0.288234 0.809681L0.578484 0.493631C0.767484 0.287831 1.07348 0.287831 1.26248 0.493631L4.57223 4.09758L7.88423 0.48873C7.97648 0.38828 8.09798 0.33438 8.22623 0.33438C8.35448 0.33438 8.47823 0.38828 8.56823 0.48873L8.85848 0.80478C8.95073 0.90523 9.00023 1.03753 9.00023 1.17718C9.00023 1.31683 8.95073 1.45158 8.85848 1.54958L4.91648 5.84443C4.82423 5.94488 4.70273 5.99878 4.57223 5.99878C4.44173 5.99878 4.32023 5.94488 4.22798 5.84443Z" fill="#252A36"/>
</g>
<defs>
<clipPath id="clip0_2057_8394">
<rect width="9" height="6" fill="white"/>
</clipPath>
</defs>
</svg>
