<svg width="28" height="28" viewBox="0 0 28 28" fill="none" xmlns="http://www.w3.org/2000/svg">
<path d="M15.0746 2.63648L22.6696 6.73148C23.5563 7.20982 23.5563 8.57482 22.6696 9.05315L15.0746 13.1482C14.398 13.5098 13.6046 13.5098 12.928 13.1482L5.33297 9.05315C4.4463 8.57482 4.4463 7.20982 5.33297 6.73148L12.928 2.63648C13.6046 2.27482 14.398 2.27482 15.0746 2.63648Z" stroke="white" stroke-width="1.5" stroke-linecap="round" stroke-linejoin="round"/>
<path d="M4.21036 11.8186L11.2687 15.3536C12.1437 15.7969 12.7037 16.6953 12.7037 17.6753V24.3486C12.7037 25.3169 11.6887 25.9353 10.8254 25.5036L3.76703 21.9686C2.89203 21.5253 2.33203 20.6269 2.33203 19.6469V12.9736C2.33203 12.0053 3.34703 11.3869 4.21036 11.8186Z" stroke="white" stroke-width="1.5" stroke-linecap="round" stroke-linejoin="round"/>
<path d="M23.7902 11.8186L16.7319 15.3536C15.8569 15.7969 15.2969 16.6953 15.2969 17.6753V24.3486C15.2969 25.3169 16.3119 25.9353 17.1752 25.5036L24.2335 21.9686C25.1085 21.5253 25.6685 20.6269 25.6685 19.6469V12.9736C25.6685 12.0053 24.6535 11.3869 23.7902 11.8186Z" stroke="white" stroke-width="1.5" stroke-linecap="round" stroke-linejoin="round"/>
</svg>
