<svg width="42" height="42" viewBox="0 0 42 42" fill="none" xmlns="http://www.w3.org/2000/svg">
<path d="M32.6714 32.6725L36.5564 30.73V25.865M24.8839 17.115L20.9989 19.0575L24.8839 17.115ZM20.9989 19.0575L17.1139 17.115L20.9989 19.0575ZM20.9989 19.0575V23.9225V19.0575ZM36.5564 11.27L32.6714 13.2125L36.5564 11.27ZM36.5564 11.27L32.6714 9.3275L36.5564 11.27ZM36.5564 11.27V16.135V11.27ZM24.8839 5.4425L20.9989 3.5L17.1139 5.4425H24.8839ZM5.44141 11.27L9.32641 9.3275L5.44141 11.27ZM5.44141 11.27L9.32641 13.2125L5.44141 11.27ZM5.44141 11.27V16.135V11.27ZM20.9989 38.5L17.1139 36.5575L20.9989 38.5ZM20.9989 38.5L24.8839 36.5575L20.9989 38.5ZM20.9989 38.5V33.635V38.5ZM9.32641 32.6725L5.44141 30.73V25.865L9.32641 32.6725Z" stroke="#EF4E06" stroke-width="2" stroke-linecap="round" stroke-linejoin="round"/>
</svg>
