<svg width="31" height="28" viewBox="0 0 31 28" fill="none" xmlns="http://www.w3.org/2000/svg">
<g opacity="0.1" clip-path="url(#clip0_2081_18421)">
<path fill-rule="evenodd" clip-rule="evenodd" d="M29.7336 15.1274C26.0609 24.243 19.3758 27.6655 19.3758 27.6655L17.3619 25.3894C17.3619 25.3894 20.5478 23.7412 21.9526 20.4582C23.681 17.2102 23.4036 14.8442 23.4036 14.8442C23.4036 14.8442 20.0964 14.8991 17.7779 12.7194C15.032 9.0121 16.7865 4.58756 16.7865 4.58756C16.7865 4.58756 18.6285 0.540484 23.5722 0.558791C27.401 0.215253 29.7336 3.73033 29.7336 3.73033C29.7336 3.73033 32.429 7.29871 29.7336 15.1274ZM3.55164 27.6655L1.53772 25.3894C1.53772 25.3894 4.72311 23.7412 6.12736 20.4582C7.85629 17.2102 7.57946 14.8442 7.57946 14.8442C7.57946 14.8442 4.27225 14.8991 1.95378 12.7194C-0.79217 9.0121 0.962321 4.58756 0.962321 4.58756C0.962321 4.58756 2.80437 0.540484 7.74751 0.558791C11.5763 0.215253 13.9094 3.73033 13.9094 3.73033C13.9094 3.73033 16.6043 7.29871 13.9094 15.1274C10.2362 24.243 3.55164 27.6655 3.55164 27.6655Z" fill="white"/>
</g>
<defs>
<clipPath id="clip0_2081_18421">
<rect width="31" height="28" fill="white"/>
</clipPath>
</defs>
</svg>
