<svg width="42" height="42" viewBox="0 0 42 42" fill="none" xmlns="http://www.w3.org/2000/svg">
<path d="M22.61 3.95497L34.0025 10.0975C35.3325 10.815 35.3325 12.8625 34.0025 13.58L22.61 19.7225C21.595 20.265 20.405 20.265 19.39 19.7225L7.9975 13.58C6.6675 12.8625 6.6675 10.815 7.9975 10.0975L19.39 3.95497C20.405 3.41247 21.595 3.41247 22.61 3.95497Z" stroke="#EF4E06" stroke-width="2" stroke-linecap="round" stroke-linejoin="round"/>
<path d="M6.3175 17.7275L16.905 23.03C18.2175 23.695 19.0575 25.0425 19.0575 26.5125V36.5225C19.0575 37.975 17.535 38.9025 16.24 38.255L5.6525 32.9525C4.34 32.2875 3.5 30.94 3.5 29.47V19.46C3.5 18.0075 5.0225 17.08 6.3175 17.7275Z" stroke="#EF4E06" stroke-width="2" stroke-linecap="round" stroke-linejoin="round"/>
<path d="M35.6824 17.7275L25.0949 23.03C23.7824 23.695 22.9424 25.0425 22.9424 26.5125V36.5225C22.9424 37.975 24.4649 38.9025 25.7599 38.255L36.3474 32.9525C37.6599 32.2875 38.4999 30.94 38.4999 29.47V19.46C38.4999 18.0075 36.9774 17.08 35.6824 17.7275Z" stroke="#EF4E06" stroke-width="2" stroke-linecap="round" stroke-linejoin="round"/>
</svg>
