<svg width="42" height="42" viewBox="0 0 42 42" fill="none" xmlns="http://www.w3.org/2000/svg">
<path d="M16.0305 19.0225C15.8555 19.005 15.6455 19.005 15.453 19.0225C11.288 18.8825 7.98047 15.47 7.98047 11.27C7.98047 6.9825 11.4455 3.5 15.7505 3.5C20.038 3.5 23.5205 6.9825 23.5205 11.27C23.503 15.47 20.1955 18.8825 16.0305 19.0225Z" stroke="#EF4E06" stroke-width="2" stroke-linecap="round" stroke-linejoin="round"/>
<path d="M28.7158 7C32.1108 7 34.8408 9.7475 34.8408 13.125C34.8408 16.4325 32.2158 19.1275 28.9433 19.25C28.8033 19.2325 28.6458 19.2325 28.4883 19.25" stroke="#EF4E06" stroke-width="2" stroke-linecap="round" stroke-linejoin="round"/>
<path d="M7.28172 25.48C3.04672 28.315 3.04672 32.935 7.28172 35.7525C12.0942 38.9725 19.9867 38.9725 24.7992 35.7525C29.0342 32.9175 29.0342 28.2975 24.7992 25.48C20.0042 22.2775 12.1117 22.2775 7.28172 25.48Z" stroke="#EF4E06" stroke-width="2" stroke-linecap="round" stroke-linejoin="round"/>
<path d="M32.0938 35C33.3538 34.7375 34.5437 34.23 35.5237 33.4775C38.2537 31.43 38.2537 28.0525 35.5237 26.005C34.5612 25.27 33.3888 24.78 32.1463 24.5" stroke="#EF4E06" stroke-width="2" stroke-linecap="round" stroke-linejoin="round"/>
</svg>
