<svg width="42" height="42" viewBox="0 0 42 42" fill="none" xmlns="http://www.w3.org/2000/svg">
<path d="M38.5 19.075V7.175C38.5 4.55 37.38 3.5 34.5975 3.5H27.5275C24.745 3.5 23.625 4.55 23.625 7.175V19.075C23.625 21.7 24.745 22.75 27.5275 22.75H34.5975C37.38 22.75 38.5 21.7 38.5 19.075Z" stroke="#EF4E06" stroke-width="2" stroke-linecap="round" stroke-linejoin="round"/>
<path d="M38.5 34.825V31.675C38.5 29.05 37.38 28 34.5975 28H27.5275C24.745 28 23.625 29.05 23.625 31.675V34.825C23.625 37.45 24.745 38.5 27.5275 38.5H34.5975C37.38 38.5 38.5 37.45 38.5 34.825Z" stroke="#EF4E06" stroke-width="2" stroke-linecap="round" stroke-linejoin="round"/>
<path d="M18.375 22.925V34.825C18.375 37.45 17.255 38.5 14.4725 38.5H7.4025C4.62 38.5 3.5 37.45 3.5 34.825V22.925C3.5 20.3 4.62 19.25 7.4025 19.25H14.4725C17.255 19.25 18.375 20.3 18.375 22.925Z" stroke="#EF4E06" stroke-width="2" stroke-linecap="round" stroke-linejoin="round"/>
<path d="M18.375 7.175V10.325C18.375 12.95 17.255 14 14.4725 14H7.4025C4.62 14 3.5 12.95 3.5 10.325V7.175C3.5 4.55 4.62 3.5 7.4025 3.5H14.4725C17.255 3.5 18.375 4.55 18.375 7.175Z" stroke="#EF4E06" stroke-width="2" stroke-linecap="round" stroke-linejoin="round"/>
</svg>
