<svg width="42" height="42" viewBox="0 0 42 42" fill="none" xmlns="http://www.w3.org/2000/svg">
<path d="M15.19 22.2601H18.235V29.3476C18.235 30.3976 19.53 30.8876 20.23 30.1001L27.685 21.6301C28.3325 20.8951 27.8075 19.7401 26.8275 19.7401H23.7825V12.6526C23.7825 11.6026 22.4875 11.1126 21.7875 11.9001L14.3325 20.3701C13.685 21.1051 14.21 22.2601 15.19 22.2601Z" stroke="#EF4E06" stroke-width="2" stroke-miterlimit="10" stroke-linecap="round" stroke-linejoin="round"/>
<path d="M20.9473 38.5C30.6122 38.5 38.4473 30.665 38.4473 21C38.4473 11.335 30.6122 3.5 20.9473 3.5C11.2823 3.5 3.44727 11.335 3.44727 21C3.44727 30.665 11.2823 38.5 20.9473 38.5Z" stroke="#EF4E06" stroke-width="2" stroke-miterlimit="10" stroke-linecap="round" stroke-linejoin="round"/>
</svg>
