<svg width="26" height="26" viewBox="0 0 26 26" fill="none" xmlns="http://www.w3.org/2000/svg">
<path fill-rule="evenodd" clip-rule="evenodd" d="M13.1352 5.5261C13.0904 5.57724 13.068 5.60281 13.0434 5.61153C13.0211 5.61942 12.9989 5.61943 12.9766 5.61154C12.952 5.60282 12.9296 5.57726 12.8848 5.52614C10.7104 3.04586 7.18988 2.41705 4.53212 4.75375C1.82273 7.13586 1.44128 11.1186 3.56898 13.9359C5.06861 15.9216 9.14421 19.7742 11.4197 21.8756C11.9686 22.3825 12.243 22.636 12.5692 22.7362C12.8512 22.8229 13.1688 22.8229 13.4508 22.7362C13.777 22.636 14.0514 22.3825 14.6003 21.8756C16.8758 19.7742 20.9514 15.9216 22.451 13.9359C24.5787 11.1186 24.2438 7.1108 21.4879 4.75375C18.7845 2.44165 15.3079 3.04678 13.1352 5.5261Z" stroke="#252A36" stroke-width="1.6" stroke-linecap="round"/>
</svg>
