<svg width="28" height="28" viewBox="0 0 28 28" fill="none" xmlns="http://www.w3.org/2000/svg">
<path d="M3.5013 10.4987C4.78997 10.4987 5.83464 9.45403 5.83464 8.16536C5.83464 6.8767 4.78997 5.83203 3.5013 5.83203C2.21264 5.83203 1.16797 6.8767 1.16797 8.16536C1.16797 9.45403 2.21264 10.4987 3.5013 10.4987Z" stroke="white" stroke-width="1.5" stroke-miterlimit="10" stroke-linecap="round" stroke-linejoin="round"/>
<path d="M24.5013 10.4987C25.79 10.4987 26.8346 9.45403 26.8346 8.16536C26.8346 6.8767 25.79 5.83203 24.5013 5.83203C23.2126 5.83203 22.168 6.8767 22.168 8.16536C22.168 9.45403 23.2126 10.4987 24.5013 10.4987Z" stroke="white" stroke-width="1.5" stroke-miterlimit="10" stroke-linecap="round" stroke-linejoin="round"/>
<path d="M22.1667 8.16602H17.5" stroke="white" stroke-width="1.5" stroke-miterlimit="10" stroke-linecap="round" stroke-linejoin="round"/>
<path d="M10.5026 8.16602H5.83594" stroke="white" stroke-width="1.5" stroke-miterlimit="10" stroke-linecap="round" stroke-linejoin="round"/>
<path d="M8.7513 19.25V21.5833C8.7513 22.295 8.31964 22.9133 7.71297 23.17C7.4913 23.275 7.25797 23.3333 7.0013 23.3333H4.66797C3.69964 23.3333 2.91797 22.5517 2.91797 21.5833V19.25C2.91797 18.2817 3.69964 17.5 4.66797 17.5H7.0013C7.96964 17.5 8.7513 18.2817 8.7513 19.25Z" stroke="white" stroke-width="1.5" stroke-miterlimit="10" stroke-linecap="round" stroke-linejoin="round"/>
<path d="M25.0833 19.25V21.5833C25.0833 22.5517 24.3017 23.3333 23.3333 23.3333H21C20.7433 23.3333 20.51 23.275 20.2883 23.17C19.6817 22.9133 19.25 22.295 19.25 21.5833V19.25C19.25 18.2817 20.0317 17.5 21 17.5H23.3333C24.3017 17.5 25.0833 18.2817 25.0833 19.25Z" stroke="white" stroke-width="1.5" stroke-miterlimit="10" stroke-linecap="round" stroke-linejoin="round"/>
<path d="M17.5 6.41602V9.91602C17.5 10.8727 16.7067 11.666 15.75 11.666H12.25C11.2933 11.666 10.5 10.8727 10.5 9.91602V6.41602C10.5 5.45935 11.2933 4.66602 12.25 4.66602H15.75C16.7067 4.66602 17.5 5.45935 17.5 6.41602Z" stroke="white" stroke-width="1.5" stroke-miterlimit="10" stroke-linecap="round" stroke-linejoin="round"/>
<path d="M17.5 9.01758C20.265 10.4176 22.1667 13.4276 22.1667 16.9159C22.1667 17.1143 22.155 17.3009 22.1317 17.4993" stroke="white" stroke-width="1.5" stroke-miterlimit="10" stroke-linecap="round" stroke-linejoin="round"/>
<path d="M5.87094 17.4993C5.8476 17.3009 5.83594 17.1143 5.83594 16.9159C5.83594 13.4276 7.7376 10.4176 10.5026 9.01758" stroke="white" stroke-width="1.5" stroke-miterlimit="10" stroke-linecap="round" stroke-linejoin="round"/>
</svg>
