<svg width="178" height="40" viewBox="0 0 178 40" fill="none" xmlns="http://www.w3.org/2000/svg">
<g clip-path="url(#clip0_73_255)">
<mask id="mask0_73_255" style="mask-type:luminance" maskUnits="userSpaceOnUse" x="15" y="0" width="23" height="21">
<path d="M37.7489 0H15.4185V20.9129H37.7489V0Z" fill="white"/>
</mask>
<g mask="url(#mask0_73_255)">
<path d="M37.7489 0H15.4185V20.9129H37.7489V0Z" fill="url(#paint0_linear_73_255)"/>
</g>
<mask id="mask1_73_255" style="mask-type:luminance" maskUnits="userSpaceOnUse" x="15" y="21" width="23" height="19">
<path d="M37.7489 21.6543V38.3684C37.7489 39.2077 37.0557 39.8923 36.2115 39.8923H15.4185V21.6543H37.7489Z" fill="white"/>
</mask>
<g mask="url(#mask1_73_255)">
<path d="M37.7489 21.6543H15.4185V39.8923H37.7489V21.6543Z" fill="url(#paint1_linear_73_255)"/>
</g>
<mask id="mask2_73_255" style="mask-type:luminance" maskUnits="userSpaceOnUse" x="0" y="0" width="15" height="21">
<path d="M1.53739 0H14.6584V20.9129H0V1.52393C0 0.687117 0.693185 0 1.53739 0Z" fill="white"/>
</mask>
<g mask="url(#mask2_73_255)">
<path d="M14.6584 0H0V20.9129H14.6584V0Z" fill="url(#paint2_linear_73_255)"/>
</g>
<mask id="mask3_73_255" style="mask-type:luminance" maskUnits="userSpaceOnUse" x="0" y="21" width="15" height="19">
<path d="M14.6584 21.6543H0V39.8923H14.6584V21.6543Z" fill="white"/>
</mask>
<g mask="url(#mask3_73_255)">
<path d="M14.6584 21.6543H0V39.8923H14.6584V21.6543Z" fill="url(#paint3_linear_73_255)"/>
</g>
<path d="M163.567 9.24381C163.567 7.88185 163.728 6.6475 164.047 5.5432C164.367 4.43891 164.852 3.49412 165.506 2.70639C166.157 1.91866 166.986 1.31498 167.994 0.892895C169.001 0.470809 170.192 0.259766 171.566 0.259766C172.371 0.259766 173.153 0.340747 173.913 0.505164C174.67 0.669582 175.341 0.887986 175.921 1.15793C176.502 1.42786 176.97 1.74443 177.324 2.11007C177.681 2.47326 177.857 2.86835 177.857 3.29044C177.857 3.61928 177.738 3.90639 177.5 4.15424C177.262 4.39964 176.955 4.5248 176.577 4.5248C176.317 4.5248 176.109 4.47081 175.955 4.36529C175.802 4.25977 175.581 4.11253 175.297 3.92602C174.254 3.19719 173.069 2.834 171.742 2.834C170.746 2.834 169.905 2.98124 169.219 3.27326C168.531 3.56774 167.981 3.99474 167.565 4.55915C167.152 5.12357 166.855 5.79842 166.676 6.58615C166.498 7.37388 166.409 8.25977 166.409 9.24627V16.7874C166.409 17.7739 166.498 18.6598 166.676 19.4475C166.855 20.2352 167.149 20.9101 167.565 21.472C167.981 22.0365 168.531 22.4634 169.219 22.7579C169.907 23.0524 170.746 23.1996 171.742 23.1996C173.069 23.1996 174.254 22.8365 175.297 22.1076C175.604 21.9187 175.829 21.7739 175.973 21.6684C176.114 21.5628 176.317 21.5088 176.577 21.5088C176.955 21.5088 177.265 21.6315 177.5 21.8794C177.738 22.1273 177.857 22.4144 177.857 22.7432C177.857 23.1653 177.678 23.5604 177.324 23.9236C176.968 24.2868 176.5 24.6058 175.921 24.8757C175.339 25.1457 174.67 25.3641 173.913 25.5285C173.155 25.6929 172.373 25.7763 171.566 25.7763C170.192 25.7763 169.001 25.5653 167.994 25.1407C166.986 24.7187 166.157 24.1125 165.506 23.3273C164.854 22.5395 164.369 21.5947 164.047 20.4904C163.728 19.3861 163.567 18.1542 163.567 16.7898V9.24872V9.24381ZM160.794 24.007C160.794 24.407 160.658 24.7481 160.386 25.0279C160.114 25.3101 159.774 25.45 159.373 25.45H149.953C149.362 25.45 148.839 25.3322 148.389 25.0966C147.938 24.861 147.713 24.4266 147.713 23.7935V2.26713C147.713 1.86713 147.874 1.49167 148.193 1.13829C148.513 0.784919 148.911 0.610686 149.384 0.610686H159.017C159.42 0.610686 159.757 0.745655 160.029 1.01559C160.302 1.28553 160.438 1.61927 160.438 2.01927C160.438 2.41927 160.302 2.74075 160.029 2.9886C159.757 3.234 159.42 3.35915 159.017 3.35915H150.557V11.6046H158.341C158.697 11.6046 159.017 11.7346 159.301 11.9923C159.586 12.2499 159.727 12.5788 159.727 12.9788C159.727 13.3788 159.596 13.7076 159.336 13.9653C159.076 14.223 158.744 14.353 158.341 14.353H150.557V22.7039H159.373C159.752 22.7039 160.084 22.834 160.369 23.0917C160.653 23.3493 160.794 23.6561 160.794 24.007ZM131.72 13.5432H135.807C137.513 13.5432 138.798 13.1309 139.665 12.3088C140.529 11.4868 140.962 10.2058 140.962 8.46835C140.962 7.83523 140.89 7.21191 140.749 6.60087C140.608 5.98983 140.345 5.44504 139.967 4.96161C139.588 4.48062 139.06 4.09289 138.385 3.79842C137.709 3.50394 136.85 3.35915 135.807 3.35915H131.72V13.5407V13.5432ZM131.72 16.2917V24.326C131.72 24.726 131.584 25.072 131.312 25.3665C131.039 25.661 130.703 25.8082 130.299 25.8082C129.92 25.8082 129.589 25.661 129.304 25.3665C129.019 25.072 128.878 24.726 128.878 24.326V2.30148C128.878 1.83277 129.044 1.43277 129.376 1.10394C129.707 0.775103 130.111 0.610686 130.584 0.610686H135.81C137.278 0.610686 138.523 0.829091 139.543 1.26345C140.563 1.6978 141.385 2.2794 142.014 3.00823C142.643 3.73707 143.098 4.57633 143.383 5.52848C143.668 6.48063 143.809 7.47204 143.809 8.50516C143.809 11.018 143.086 12.9444 141.64 14.2843C140.194 15.6242 138.251 16.2917 135.81 16.2917H131.723H131.72ZM125.108 24.007C125.108 24.407 124.972 24.7481 124.699 25.0279C124.427 25.3101 124.088 25.45 123.687 25.45H114.267C113.675 25.45 113.153 25.3322 112.702 25.0966C112.252 24.861 112.026 24.4266 112.026 23.7935V2.26713C112.026 1.86713 112.187 1.49167 112.507 1.13829C112.826 0.784919 113.224 0.610686 113.697 0.610686H123.33C123.734 0.610686 124.07 0.745655 124.343 1.01559C124.615 1.28553 124.751 1.61927 124.751 2.01927C124.751 2.41927 124.615 2.74075 124.343 2.9886C124.07 3.234 123.734 3.35915 123.33 3.35915H114.871V11.6046H122.654C123.011 11.6046 123.33 11.7346 123.615 11.9923C123.9 12.2499 124.041 12.5788 124.041 12.9788C124.041 13.3788 123.909 13.7076 123.65 13.9653C123.39 14.223 123.058 14.353 122.654 14.353H114.871V22.7039H123.687C124.065 22.7039 124.397 22.834 124.682 23.0917C124.967 23.3493 125.108 23.6561 125.108 24.007ZM99.4103 3.35915H94.5753C94.1718 3.35915 93.8351 3.22418 93.5628 2.95424C93.2905 2.68431 93.1543 2.36038 93.1543 1.98492C93.1543 1.68062 93.2905 1.37388 93.5628 1.06958C93.8351 0.765287 94.1743 0.610686 94.5753 0.610686H107.087C107.466 0.610686 107.805 0.740747 108.1 0.998416C108.397 1.25608 108.546 1.58492 108.546 1.98492C108.546 2.36038 108.404 2.68431 108.12 2.95424C107.835 3.22418 107.491 3.35915 107.09 3.35915H102.255V24.3923C102.255 24.7677 102.119 25.0966 101.846 25.3788C101.574 25.661 101.237 25.8009 100.834 25.8009C100.43 25.8009 100.094 25.661 99.8213 25.3788C99.5489 25.0966 99.4128 24.7677 99.4128 24.3923V3.35915H99.4103ZM89.6364 24.3579C89.6364 24.7579 89.5002 25.0966 89.2279 25.3788C88.9556 25.661 88.6189 25.8009 88.2154 25.8009C87.8366 25.8009 87.5049 25.661 87.2202 25.3788C86.9355 25.0966 86.7943 24.7555 86.7943 24.3579V14.3874H77.0898V24.3579C77.0898 24.7579 76.9536 25.0966 76.6813 25.3788C76.4089 25.661 76.0723 25.8009 75.6687 25.8009C75.2652 25.8009 74.9285 25.661 74.6562 25.3788C74.3839 25.0966 74.2477 24.7555 74.2477 24.3579V1.66835C74.2477 1.29289 74.3839 0.96406 74.6562 0.681852C74.9285 0.399643 75.2652 0.259766 75.6687 0.259766C76.0723 0.259766 76.4089 0.399643 76.6813 0.681852C76.9536 0.96406 77.0898 1.29289 77.0898 1.66835V11.6389H86.7943V1.66835C86.7943 1.29289 86.9355 0.96406 87.2202 0.681852C87.5049 0.399643 87.8366 0.259766 88.2154 0.259766C88.5941 0.259766 88.9259 0.399643 89.2106 0.681852C89.4953 0.96406 89.6364 1.29289 89.6364 1.66835V24.3579ZM54.8732 25.8033C54.4003 25.8033 54.0191 25.6512 53.7368 25.3444C53.4521 25.0401 53.311 24.6745 53.311 24.2524V1.70271C53.311 1.30271 53.4422 0.96406 53.7022 0.681852C53.9621 0.399643 54.2939 0.259766 54.6974 0.259766C55.1009 0.259766 55.4426 0.399643 55.7273 0.681852C56.012 0.96406 56.1531 1.30516 56.1531 1.70271V19.6733L66.0335 1.10394C66.1746 0.846269 66.3825 0.640134 66.6548 0.487987C66.9272 0.335839 67.2168 0.259766 67.5263 0.259766C67.9769 0.259766 68.3432 0.407005 68.6279 0.699029C68.9126 0.993508 69.0538 1.36161 69.0538 1.80823V24.3579C69.0538 24.7579 68.9226 25.0966 68.6626 25.3788C68.4027 25.661 68.0709 25.8009 67.6674 25.8009C67.2639 25.8009 66.9197 25.661 66.6375 25.3788C66.3553 25.0966 66.2117 24.7555 66.2117 24.3579V6.38983L56.3313 24.9935C56.1902 25.2512 55.9823 25.4524 55.71 25.5923C55.4376 25.7346 55.1604 25.8033 54.8757 25.8033H54.8732Z" fill="white"/>
<path fill-rule="evenodd" clip-rule="evenodd" d="M5.22616 10.13C5.24597 10.0981 5.26825 10.0711 5.29548 10.0465C5.33757 10.0048 5.36728 9.98764 5.36975 9.98764L5.37223 9.98519L5.3747 9.98273L8.32074 7.62691C8.39253 7.57046 8.47918 7.54102 8.56335 7.54102H31.1736C31.3889 7.54102 31.5622 7.71279 31.5622 7.92629V31.4723C31.5622 31.6024 31.4954 31.7177 31.3964 31.7864L28.4008 34.1815C28.3117 34.2527 28.2003 34.2772 28.0963 34.26C28.0617 34.2649 28.0245 34.2649 27.9849 34.2649H26.0886C26.1034 34.314 26.1108 34.368 26.1108 34.422V34.6649C26.1108 34.9619 25.8657 35.2073 25.5637 35.2073H24.972C24.6725 35.2073 24.4249 34.9643 24.4249 34.6649V34.422C24.4249 34.368 24.4323 34.3165 24.4472 34.2649H9.25901C9.27387 34.314 9.2813 34.368 9.2813 34.422V34.6649C9.2813 34.9619 9.0362 35.2073 8.73417 35.2073H8.14249C7.84294 35.2073 7.59537 34.9643 7.59537 34.6649V34.422C7.59537 34.368 7.6028 34.3165 7.61765 34.2649H5.548C5.17417 34.2649 5.15932 33.8797 5.15932 33.8797V10.3901C5.15932 10.3901 5.14199 10.2355 5.22121 10.13" fill="#E3000F"/>
<path d="M31.181 7.92676H8.5708V31.4728H31.181V7.92676Z" fill="white"/>
<path d="M31.4038 7.62695H8.32812V31.7889H31.4038V7.62695Z" fill="#ECECEC"/>
<path fill-rule="evenodd" clip-rule="evenodd" d="M5.55518 10.339L8.57053 7.92676V31.4752L5.55518 33.885V10.339Z" fill="#B1B2B3"/>
<path fill-rule="evenodd" clip-rule="evenodd" d="M5.55518 15.048L8.57053 12.6357H24.2167L21.1989 15.048H5.55518Z" fill="#D9DADA"/>
<path fill-rule="evenodd" clip-rule="evenodd" d="M8.57053 31.4746H31.1807L28.1654 33.8844H5.55518L8.57053 31.4746Z" fill="#D9DADA"/>
<path fill-rule="evenodd" clip-rule="evenodd" d="M21.1992 10.339L24.217 7.92676V31.4752L21.1992 33.885V10.339Z" fill="#B1B2B3"/>
<path fill-rule="evenodd" clip-rule="evenodd" d="M30.0816 8.31157H8.7067L6.6519 9.95329H28.0292L30.084 8.31157H30.0816ZM8.57054 7.54102H31.1807C31.3961 7.54102 31.5694 7.71279 31.5694 7.92629C31.5694 8.05635 31.5026 8.17169 31.4036 8.24286L28.408 10.6379C28.3362 10.6944 28.2496 10.7238 28.1654 10.7238H5.55518C5.3398 10.7238 5.1665 10.5521 5.1665 10.3386C5.1665 10.2085 5.23087 10.0932 5.33237 10.022L8.3304 7.62691C8.40219 7.57046 8.48884 7.54102 8.57301 7.54102H8.57054Z" fill="#97989C"/>
<path fill-rule="evenodd" clip-rule="evenodd" d="M21.1992 19.757L24.217 17.3447H31.1811L28.1657 19.757H21.1992Z" fill="#D9DADA"/>
<path fill-rule="evenodd" clip-rule="evenodd" d="M21.1992 24.4665L24.217 22.0566H31.1811L28.1657 24.4665H21.1992Z" fill="#D9DADA"/>
<path fill-rule="evenodd" clip-rule="evenodd" d="M21.1992 29.1754L24.217 26.7656H31.1811L28.1657 29.1754H21.1992Z" fill="#D9DADA"/>
<path fill-rule="evenodd" clip-rule="evenodd" d="M21.1992 15.048L24.217 12.6357H31.1811L28.1657 15.048H21.1992Z" fill="#D9DADA"/>
<path fill-rule="evenodd" clip-rule="evenodd" d="M27.9428 10.0223L30.9383 7.62719C31.1042 7.49468 31.3493 7.52167 31.483 7.68609C31.5399 7.75725 31.5696 7.84314 31.5671 7.92658V31.4726C31.5671 31.6027 31.5003 31.718 31.4013 31.7892L28.4057 34.1842C28.2398 34.3168 27.9947 34.2898 27.8611 34.1254C27.8041 34.0542 27.7744 33.9683 27.7744 33.8849V10.3388C27.7744 10.2088 27.8388 10.0934 27.9403 10.0223" fill="#B1B2B3"/>
<path fill-rule="evenodd" clip-rule="evenodd" d="M8.57053 7.92676H31.1807L28.1654 10.339H5.55518L8.57053 7.92676Z" fill="#E7E7E7"/>
<path fill-rule="evenodd" clip-rule="evenodd" d="M21.5877 10.7242V14.6628H27.7743V10.7242H21.5877ZM21.5877 19.372H27.7743V15.4334H21.5877V19.372ZM21.5877 24.0812H27.7743V20.1426H21.5877V24.0812ZM27.7743 29.561H21.5877V33.4996H27.7743V29.561ZM21.5877 28.7904H27.7743V24.8518H21.5877V28.7904ZM13.8116 33.4996V15.4334H20.8103V33.5021H13.8116V33.4996ZM12.9427 15.4309V33.4996H5.94396V15.4334H12.9427V15.4309ZM12.9427 14.6604V10.7217H5.94396V14.6604H12.9427ZM13.8116 10.7217V14.6604H20.8103V10.7217H13.8116ZM5.16661 33.1806V10.3904C5.16661 10.3904 5.14928 10.2358 5.2285 10.1303C5.30524 10.0248 5.37456 9.98798 5.37456 9.98798C5.37456 9.98798 5.40922 9.95117 5.5033 9.95117H27.861C27.861 9.95117 28.5517 10.0395 28.5517 10.6506V33.7794C28.5517 34.0174 28.4254 34.2677 27.9897 34.2677H26.0934C26.1082 34.3168 26.1156 34.3708 26.1156 34.4248V34.6677C26.1156 34.9647 25.8706 35.2101 25.5685 35.2101H24.9768C24.6773 35.2101 24.4297 34.9671 24.4297 34.6677V34.4248C24.4297 34.3708 24.4371 34.3193 24.452 34.2677H9.25887C9.27373 34.3168 9.28116 34.3708 9.28116 34.4248V34.6677C9.28116 34.9647 9.03606 35.2101 8.73403 35.2101H8.14235C7.8428 35.2101 7.59523 34.9671 7.59523 34.6677V34.4248C7.59523 34.3708 7.60266 34.3193 7.61751 34.2677H5.54786C5.17403 34.2677 5.15918 33.8825 5.15918 33.8825V33.1782L5.16661 33.1806Z" fill="#96979B"/>
<path d="M173.774 31.9264L175.411 35.73H172.125L173.774 31.9264ZM170.095 38.9742H170.727L171.878 36.3116H175.671L176.822 38.9742H177.488L174.044 31.0748H173.537L170.093 38.9742H170.095ZM163.921 38.9742H164.542V31.1411H163.921V38.9742ZM169.385 31.1411H168.63L164.916 34.8883L168.744 38.9718H169.546L165.652 34.8441L169.387 31.1411H169.385ZM155.479 38.9742L160.797 32.1497V38.9742H161.418V31.1411H160.866L155.548 37.9656V31.1411H154.927V38.9742H155.479ZM150.31 31.7006C151.8 31.7006 152.409 32.4491 152.409 33.4675C152.409 34.5423 151.664 35.2908 150.231 35.2908C149.78 35.2908 149.384 35.2687 148.943 35.2343V31.7202C149.315 31.7079 149.958 31.6981 150.31 31.6981V31.7006ZM148.943 38.9742V35.8306C149.394 35.865 149.879 35.8748 150.253 35.8748C152.216 35.8748 153.063 34.6994 153.063 33.4797C153.063 32.2601 152.441 31.119 150.253 31.119C149.802 31.119 148.763 31.1411 148.322 31.1411V38.9742H148.943ZM143.368 34.8908C144.881 34.8908 145.614 35.5632 145.614 36.6037C145.614 37.7668 144.834 38.427 143.299 38.427C142.848 38.427 142.43 38.4049 142.056 38.3926V34.957C142.541 34.9006 143.027 34.8908 143.366 34.8908H143.368ZM141.437 38.9742C141.9 38.9742 142.509 39.0086 143.21 39.0086C145.084 39.0086 146.235 38.1816 146.235 36.5693C146.235 35.1828 145.265 34.3092 143.39 34.3092C143.064 34.3092 142.521 34.3313 142.059 34.3754V31.7227H145.794V31.1411H141.437V38.9742ZM136.233 31.9264L137.87 35.73H134.585L136.233 31.9264ZM132.554 38.9742H133.186L134.337 36.3116H138.13L139.281 38.9742H139.947L136.503 31.0748H135.996L132.552 38.9742H132.554ZM124.1 34.9472C124.1 33.3349 125.365 32.4196 127.284 32.4196H127.306V37.4773H127.262C125.4 37.4773 124.1 36.6037 124.1 34.9472ZM127.972 32.4196C129.925 32.4196 131.166 33.3251 131.166 34.9472C131.166 36.5693 129.868 37.4773 128.004 37.4773H127.925V32.4196H127.97H127.972ZM127.306 39.065H127.927V38.0466H128.007C130.252 38.0466 131.822 36.9153 131.822 34.9472C131.822 32.9791 130.309 31.8478 127.95 31.8478H127.927V31.0527H127.306V31.8478H127.294C124.979 31.8478 123.444 32.9668 123.444 34.9472C123.444 36.9276 125.001 38.0466 127.249 38.0466H127.306V39.065ZM116.582 35.3276C115.779 35.2049 114.99 34.5104 114.99 33.5828C114.99 32.5423 115.7 31.6908 117.181 31.6908C117.609 31.6908 118.107 31.7129 118.423 31.7251V35.3276H116.584H116.582ZM118.421 38.9742H119.042V31.1411C118.579 31.1411 117.834 31.1067 117.292 31.1067C115.282 31.1067 114.334 32.2257 114.334 33.6122C114.334 34.7435 115.168 35.5264 116.049 35.8159L113.702 38.9718H114.413L116.658 35.9067H118.418V38.9718L118.421 38.9742ZM109.402 31.9264L111.039 35.73H107.753L109.402 31.9264ZM105.723 38.9742H106.355L107.506 36.3116H111.298L112.45 38.9742H113.116L109.672 31.0748H109.164L105.721 38.9742H105.723ZM103.612 38.9742H104.233V31.1411H103.612V34.6871H98.68V31.1411H98.0586V38.9742H98.68V35.2711H103.612V38.9742ZM91.9512 31.1411H91.3298V38.9742C91.7927 38.9742 92.4463 38.9963 93.0801 38.9963C95.021 38.9963 96.1945 38.1227 96.1945 36.5006C96.1945 35.0675 95.2587 34.1742 93.2261 34.1742C92.9216 34.1742 92.4364 34.1963 91.9512 34.2306V31.1435V31.1411ZM93.194 34.7558C94.719 34.7558 95.5409 35.3816 95.5409 36.5129C95.5409 37.7767 94.6719 38.4147 93.1469 38.4147C92.7063 38.4147 92.3003 38.3926 91.9512 38.3803V34.8221C92.4265 34.7656 92.887 34.7558 93.194 34.7558ZM88.2055 38.9742H88.8269V31.1411H84.3014L84.1875 32.7067C83.8038 38.1006 82.7541 38.3902 82.2243 38.3583L82.2119 38.9742C83.217 39.065 84.2989 38.5153 84.752 33.2L84.8881 31.7227H88.2055V38.9742ZM76.6689 38.9742H81.1499V38.3926H77.2903V35.2932H80.6993V34.7116H77.2903V31.7251H81.0385V31.1435H76.6689V38.9767V38.9742ZM71.7127 34.8908C73.2253 34.8908 73.9581 35.5632 73.9581 36.6037C73.9581 37.7668 73.1782 38.427 71.6433 38.427C71.1928 38.427 70.7744 38.4049 70.4006 38.3926V34.957C70.8858 34.9006 71.371 34.8908 71.7102 34.8908H71.7127ZM69.7816 38.9742C70.2446 38.9742 70.8536 39.0086 71.5542 39.0086C73.4283 39.0086 74.5795 38.1816 74.5795 36.5693C74.5795 35.1828 73.609 34.3092 71.7349 34.3092C71.4081 34.3092 70.866 34.3313 70.403 34.3754V31.7227H74.1388V31.1411H69.7816V38.9742ZM63.2905 38.9742H67.7714V38.3926H63.9118V35.2932H67.3208V34.7116H63.9118V31.7251H67.66V31.1435H63.2905V38.9767V38.9742ZM53.3111 38.9742H53.9325V32.1374L57.0246 36.3337H57.1261L60.1612 32.103V38.9742H60.7826V31.1411H60.1835L57.1236 35.438L53.9399 31.1411H53.3086V38.9742H53.3111Z" fill="white"/>
<path d="M12.9425 10.7236H5.94385V33.5015H12.9425V10.7236Z" fill="white"/>
<path d="M20.8102 10.7236H13.8115V33.5015H20.8102V10.7236Z" fill="white"/>
<path fill-rule="evenodd" clip-rule="evenodd" d="M11.5665 20.1641H11.6828C11.8809 20.1641 12.0418 20.3236 12.0418 20.5199V23.7052C12.0418 23.9015 11.8809 24.061 11.6828 24.061H11.5665C11.3684 24.061 11.2075 23.9015 11.2075 23.7052V20.5199C11.2075 20.3236 11.3684 20.1641 11.5665 20.1641Z" fill="#7D7D7D"/>
<path fill-rule="evenodd" clip-rule="evenodd" d="M15.0719 20.1641H15.1882C15.3863 20.1641 15.5472 20.3236 15.5472 20.5199V23.7052C15.5472 23.9015 15.3863 24.061 15.1882 24.061H15.0719C14.8738 24.061 14.7129 23.9015 14.7129 23.7052V20.5199C14.7129 20.3236 14.8738 20.1641 15.0719 20.1641Z" fill="#7D7D7D"/>
</g>
<defs>
<linearGradient id="paint0_linear_73_255" x1="14.7575" y1="10.4564" x2="37.7514" y2="10.4564" gradientUnits="userSpaceOnUse">
<stop stop-color="#E41B0E"/>
<stop offset="1" stop-color="#CB081F"/>
</linearGradient>
<linearGradient id="paint1_linear_73_255" x1="14.6609" y1="30.7733" x2="37.7514" y2="30.7733" gradientUnits="userSpaceOnUse">
<stop stop-color="#6DB1E2"/>
<stop offset="1" stop-color="#234194"/>
</linearGradient>
<linearGradient id="paint2_linear_73_255" x1="0" y1="10.4564" x2="14.6584" y2="10.4564" gradientUnits="userSpaceOnUse">
<stop stop-color="#E95110"/>
<stop offset="1" stop-color="#F18500"/>
</linearGradient>
<linearGradient id="paint3_linear_73_255" x1="0" y1="30.7733" x2="14.6584" y2="30.7733" gradientUnits="userSpaceOnUse">
<stop stop-color="#5CB12E"/>
<stop offset="1" stop-color="#89BD21"/>
</linearGradient>
<clipPath id="clip0_73_255">
<rect width="178" height="40" fill="white"/>
</clipPath>
</defs>
</svg>
