<svg width="172" height="130" viewBox="0 0 172 130" fill="none" xmlns="http://www.w3.org/2000/svg">
<g clip-path="url(#clip0_2113_10806)">
<mask id="mask0_2113_10806" style="mask-type:luminance" maskUnits="userSpaceOnUse" x="80" y="0" width="32" height="30">
<path d="M111.759 0H80.9766V29.0016H111.759V0Z" fill="white"/>
</mask>
<g mask="url(#mask0_2113_10806)">
<path d="M111.759 0H80.9766V29.0016H111.759V0Z" fill="url(#paint0_linear_2113_10806)"/>
</g>
<mask id="mask1_2113_10806" style="mask-type:luminance" maskUnits="userSpaceOnUse" x="80" y="30" width="32" height="26">
<path d="M111.759 30.0293V53.2081C111.759 54.372 110.804 55.3214 109.64 55.3214H80.9766V30.0293H111.759Z" fill="white"/>
</mask>
<g mask="url(#mask1_2113_10806)">
<path d="M111.759 30.0293H80.9766V55.3214H111.759V30.0293Z" fill="url(#paint1_linear_2113_10806)"/>
</g>
<mask id="mask2_2113_10806" style="mask-type:luminance" maskUnits="userSpaceOnUse" x="59" y="0" width="21" height="30">
<path d="M61.8419 0H79.9292V29.0016H59.7227V2.11335C59.7227 0.95288 60.6782 0 61.8419 0Z" fill="white"/>
</mask>
<g mask="url(#mask2_2113_10806)">
<path d="M79.9292 0H59.7227V29.0016H79.9292V0Z" fill="url(#paint2_linear_2113_10806)"/>
</g>
<mask id="mask3_2113_10806" style="mask-type:luminance" maskUnits="userSpaceOnUse" x="59" y="30" width="21" height="26">
<path d="M79.9292 30.0293H59.7227V55.3214H79.9292V30.0293Z" fill="white"/>
</mask>
<g mask="url(#mask3_2113_10806)">
<path d="M79.9292 30.0293H59.7227V55.3214H79.9292V30.0293Z" fill="url(#paint3_linear_2113_10806)"/>
</g>
<path fill-rule="evenodd" clip-rule="evenodd" d="M66.9264 14.0473C66.9537 14.0031 66.9844 13.9657 67.0219 13.9316C67.08 13.8738 67.1209 13.85 67.1243 13.85L67.1277 13.8466L67.1311 13.8432L71.1923 10.5761C71.2912 10.4979 71.4107 10.457 71.5267 10.457H102.695C102.992 10.457 103.231 10.6953 103.231 10.9913V43.6445C103.231 43.8248 103.139 43.9848 103.002 44.0801L98.8727 47.4015C98.7498 47.5002 98.5962 47.5343 98.4529 47.5104C98.4051 47.5172 98.3539 47.5172 98.2993 47.5172H95.6852C95.7057 47.5853 95.7159 47.6602 95.7159 47.735V48.0719C95.7159 48.4837 95.3781 48.824 94.9617 48.824H94.1461C93.7331 48.824 93.3919 48.4871 93.3919 48.0719V47.735C93.3919 47.6602 93.4021 47.5887 93.4226 47.5172H72.4857C72.5061 47.5853 72.5164 47.6602 72.5164 47.735V48.0719C72.5164 48.4837 72.1785 48.824 71.7622 48.824H70.9465C70.5336 48.824 70.1923 48.4871 70.1923 48.0719V47.735C70.1923 47.6602 70.2026 47.5887 70.2231 47.5172H67.37C66.8547 47.5172 66.8342 46.9829 66.8342 46.9829V14.4081C66.8342 14.4081 66.8104 14.1937 66.9196 14.0473" fill="#E3000F"/>
<path d="M102.703 10.9922H71.5352V43.6453H102.703V10.9922Z" fill="white"/>
<path d="M103.013 10.5762H71.2031V44.0835H103.013V10.5762Z" fill="#ECECEC"/>
<path fill-rule="evenodd" clip-rule="evenodd" d="M67.3789 14.3375L71.5356 10.9922V43.6487L67.3789 46.9906V14.3375Z" fill="#B1B2B3"/>
<path fill-rule="evenodd" clip-rule="evenodd" d="M67.3789 20.8687L71.5356 17.5234H93.1038L88.9437 20.8687H67.3789Z" fill="#D9DADA"/>
<path fill-rule="evenodd" clip-rule="evenodd" d="M71.5356 43.6484H102.704L98.5471 46.9903H67.3789L71.5356 43.6484Z" fill="#D9DADA"/>
<path fill-rule="evenodd" clip-rule="evenodd" d="M88.9453 14.3375L93.1054 10.9922V43.6487L88.9453 46.9906V14.3375Z" fill="#B1B2B3"/>
<path fill-rule="evenodd" clip-rule="evenodd" d="M101.189 11.5256H71.7239L68.8914 13.8023H98.36L101.193 11.5256H101.189ZM71.5362 10.457H102.704C103.001 10.457 103.24 10.6953 103.24 10.9913C103.24 11.1717 103.148 11.3316 103.012 11.4303L98.8822 14.7518C98.7832 14.8301 98.6637 14.8709 98.5477 14.8709H67.3795C67.0826 14.8709 66.8438 14.6327 66.8438 14.3366C66.8438 14.1562 66.9325 13.9963 67.0724 13.8976L71.2052 10.5761C71.3041 10.4979 71.4236 10.457 71.5396 10.457H71.5362Z" fill="#97989C"/>
<path fill-rule="evenodd" clip-rule="evenodd" d="M88.9453 27.398L93.1054 24.0527H102.705L98.5486 27.398H88.9453Z" fill="#D9DADA"/>
<path fill-rule="evenodd" clip-rule="evenodd" d="M88.9453 33.9298L93.1054 30.5879H102.705L98.5486 33.9298H88.9453Z" fill="#D9DADA"/>
<path fill-rule="evenodd" clip-rule="evenodd" d="M88.9453 40.4591L93.1054 37.1172H102.705L98.5486 40.4591H88.9453Z" fill="#D9DADA"/>
<path fill-rule="evenodd" clip-rule="evenodd" d="M88.9453 20.8687L93.1054 17.5234H102.705L98.5486 20.8687H88.9453Z" fill="#D9DADA"/>
<path fill-rule="evenodd" clip-rule="evenodd" d="M98.2399 13.8992L102.369 10.5777C102.598 10.394 102.936 10.4314 103.12 10.6594C103.199 10.7581 103.239 10.8772 103.236 10.9929V43.6461C103.236 43.8264 103.144 43.9864 103.007 44.0851L98.878 47.4065C98.6494 47.5903 98.3115 47.5529 98.1273 47.3249C98.0488 47.2262 98.0078 47.1071 98.0078 46.9913V14.3382C98.0078 14.1578 98.0965 13.9979 98.2365 13.8992" fill="#B1B2B3"/>
<path fill-rule="evenodd" clip-rule="evenodd" d="M71.5356 10.9922H102.704L98.5471 14.3375H67.3789L71.5356 10.9922Z" fill="#E7E7E7"/>
<path fill-rule="evenodd" clip-rule="evenodd" d="M89.4826 14.8728V20.3348H98.0109V14.8728H89.4826ZM89.4826 26.8654H98.0109V21.4034H89.4826V26.8654ZM89.4826 33.3961H98.0109V27.934H89.4826V33.3961ZM98.0109 40.9953H89.4826V46.4573H98.0109V40.9953ZM89.4826 39.9267H98.0109V34.4647H89.4826V39.9267ZM78.7633 46.4573V21.4034H88.411V46.4607H78.7633V46.4573ZM77.5655 21.4V46.4573H67.9178V21.4034H77.5655V21.4ZM77.5655 20.3314V14.8694H67.9178V20.3314H77.5655ZM78.7633 14.8694V20.3314H88.411V14.8694H78.7633ZM66.8462 46.0149V14.4099C66.8462 14.4099 66.8223 14.1955 66.9315 14.0492C67.0373 13.9029 67.1328 13.8518 67.1328 13.8518C67.1328 13.8518 67.1806 13.8008 67.3103 13.8008H98.1304C98.1304 13.8008 99.0825 13.9233 99.0825 14.7707V46.8453C99.0825 47.1754 98.9085 47.5225 98.3078 47.5225H95.6937C95.7142 47.5906 95.7244 47.6654 95.7244 47.7403V48.0772C95.7244 48.489 95.3866 48.8293 94.9702 48.8293H94.1546C93.7417 48.8293 93.4004 48.4924 93.4004 48.0772V47.7403C93.4004 47.6654 93.4106 47.594 93.4311 47.5225H72.4874C72.5078 47.5906 72.5181 47.6654 72.5181 47.7403V48.0772C72.5181 48.489 72.1802 48.8293 71.7639 48.8293H70.9482C70.5353 48.8293 70.194 48.4924 70.194 48.0772V47.7403C70.194 47.6654 70.2043 47.594 70.2247 47.5225H67.3717C66.8564 47.5225 66.8359 46.9882 66.8359 46.9882V46.0115L66.8462 46.0149Z" fill="#96979B"/>
<path d="M77.5657 14.8711H67.918V46.4591H77.5657V14.8711Z" fill="white"/>
<path d="M88.4094 14.8711H78.7617V46.4591H88.4094V14.8711Z" fill="white"/>
<path fill-rule="evenodd" clip-rule="evenodd" d="M75.6667 27.9629H75.8271C76.1001 27.9629 76.322 28.1841 76.322 28.4563V32.8736C76.322 33.1459 76.1001 33.3671 75.8271 33.3671H75.6667C75.3937 33.3671 75.1719 33.1459 75.1719 32.8736V28.4563C75.1719 28.1841 75.3937 27.9629 75.6667 27.9629Z" fill="#7D7D7D"/>
<path fill-rule="evenodd" clip-rule="evenodd" d="M80.4987 27.9629H80.6591C80.9322 27.9629 81.154 28.1841 81.154 28.4563V32.8736C81.154 33.1459 80.9322 33.3671 80.6591 33.3671H80.4987C80.2257 33.3671 80.0039 33.1459 80.0039 32.8736V28.4563C80.0039 28.1841 80.2257 27.9629 80.4987 27.9629Z" fill="#7D7D7D"/>
<path d="M151.988 88.3495C151.988 86.4608 152.21 84.749 152.65 83.2176C153.09 81.6862 153.759 80.376 154.66 79.2836C155.558 78.1911 156.701 77.354 158.09 76.7686C159.479 76.1833 161.12 75.8906 163.014 75.8906C164.123 75.8906 165.202 76.0029 166.25 76.2309C167.294 76.4589 168.219 76.7618 169.017 77.1362C169.819 77.5105 170.464 77.9495 170.952 78.4566C171.444 78.9603 171.686 79.5082 171.686 80.0935C171.686 80.5495 171.522 80.9477 171.195 81.2914C170.867 81.6317 170.444 81.8053 169.922 81.8053C169.563 81.8053 169.277 81.7304 169.065 81.5841C168.853 81.4377 168.55 81.2336 168.157 80.9749C166.721 79.9642 165.086 79.4605 163.257 79.4605C161.885 79.4605 160.724 79.6647 159.779 80.0697C158.83 80.4781 158.073 81.0702 157.499 81.8529C156.93 82.6357 156.52 83.5715 156.274 84.6639C156.029 85.7563 155.906 86.9849 155.906 88.3529V98.8108C155.906 100.179 156.029 101.407 156.274 102.5C156.52 103.592 156.926 104.528 157.499 105.307C158.073 106.09 158.83 106.682 159.779 107.091C160.728 107.499 161.885 107.703 163.257 107.703C165.086 107.703 166.721 107.2 168.157 106.189C168.58 105.927 168.891 105.726 169.089 105.58C169.283 105.433 169.563 105.358 169.922 105.358C170.444 105.358 170.87 105.529 171.195 105.872C171.522 106.216 171.686 106.614 171.686 107.07C171.686 107.656 171.44 108.203 170.952 108.707C170.461 109.211 169.816 109.653 169.017 110.028C168.215 110.402 167.294 110.705 166.25 110.933C165.205 111.161 164.127 111.276 163.014 111.276C161.12 111.276 159.479 110.984 158.09 110.395C156.701 109.81 155.558 108.969 154.66 107.88C153.763 106.788 153.094 105.478 152.65 103.946C152.21 102.415 151.988 100.706 151.988 98.8142V88.3563V88.3495ZM148.166 108.823C148.166 109.378 147.978 109.851 147.603 110.239C147.227 110.63 146.76 110.824 146.207 110.824H133.222C132.406 110.824 131.686 110.661 131.065 110.334C130.444 110.007 130.133 109.405 130.133 108.527V78.6744C130.133 78.1197 130.355 77.599 130.795 77.1089C131.235 76.6189 131.785 76.3773 132.437 76.3773H145.715C146.272 76.3773 146.736 76.5644 147.111 76.9388C147.487 77.3131 147.674 77.776 147.674 78.3307C147.674 78.8854 147.487 79.3312 147.111 79.6749C146.736 80.0152 146.272 80.1888 145.715 80.1888H134.054V91.6233H144.784C145.275 91.6233 145.715 91.8037 146.108 92.161C146.5 92.5184 146.695 92.9744 146.695 93.5291C146.695 94.0838 146.514 94.5398 146.156 94.8972C145.797 95.2545 145.34 95.4349 144.784 95.4349H134.054V107.016H146.207C146.729 107.016 147.186 107.196 147.579 107.553C147.971 107.911 148.166 108.336 148.166 108.823ZM108.087 94.3118H113.721C116.073 94.3118 117.844 93.7401 119.038 92.6C120.229 91.46 120.827 89.6836 120.827 87.2741C120.827 86.3961 120.728 85.5317 120.533 84.6843C120.339 83.837 119.977 83.0815 119.455 82.411C118.933 81.744 118.206 81.2063 117.274 80.798C116.342 80.3896 115.158 80.1888 113.721 80.1888H108.087V94.3084V94.3118ZM108.087 98.1233V109.265C108.087 109.82 107.899 110.3 107.524 110.708C107.148 111.117 106.684 111.321 106.128 111.321C105.606 111.321 105.149 111.117 104.756 110.708C104.364 110.3 104.169 109.82 104.169 109.265V78.722C104.169 78.072 104.398 77.5173 104.855 77.0613C105.312 76.6053 105.869 76.3773 106.521 76.3773H113.725C115.748 76.3773 117.465 76.6802 118.871 77.2825C120.277 77.8849 121.41 78.6914 122.277 79.7021C123.144 80.7129 123.772 81.8768 124.164 83.1972C124.557 84.5176 124.751 85.8925 124.751 87.3252C124.751 90.81 123.755 93.4815 121.762 95.3396C119.769 97.1977 117.09 98.1233 113.725 98.1233H108.09H108.087ZM98.9717 108.823C98.9717 109.378 98.784 109.851 98.4086 110.239C98.0332 110.63 97.5656 110.824 97.0128 110.824H84.0275C83.2118 110.824 82.4917 110.661 81.8706 110.334C81.2495 110.007 80.939 109.405 80.939 108.527V78.6744C80.939 78.1197 81.1608 77.599 81.601 77.1089C82.0413 76.6189 82.5907 76.3773 83.2425 76.3773H96.5213C97.0776 76.3773 97.5417 76.5644 97.9171 76.9388C98.2925 77.3131 98.4802 77.776 98.4802 78.3307C98.4802 78.8854 98.2925 79.3312 97.9171 79.6749C97.5417 80.0152 97.0776 80.1888 96.5213 80.1888H84.8602V91.6233H95.5897C96.0811 91.6233 96.5213 91.8037 96.9138 92.161C97.3063 92.5184 97.5008 92.9744 97.5008 93.5291C97.5008 94.0838 97.3199 94.5398 96.9616 94.8972C96.6032 95.2545 96.146 95.4349 95.5897 95.4349H84.8602V107.016H97.0128C97.5349 107.016 97.9922 107.196 98.3847 107.553C98.7771 107.911 98.9717 108.336 98.9717 108.823ZM63.5479 80.1888H56.8829C56.3266 80.1888 55.8625 80.0016 55.4871 79.6273C55.1117 79.2529 54.924 78.8037 54.924 78.283C54.924 77.861 55.1117 77.4357 55.4871 77.0137C55.8625 76.5917 56.33 76.3773 56.8829 76.3773H74.1306C74.6528 76.3773 75.1203 76.5576 75.5264 76.915C75.9359 77.2723 76.1407 77.7283 76.1407 78.283C76.1407 78.8037 75.9462 79.2529 75.5537 79.6273C75.1613 80.0016 74.6869 80.1888 74.134 80.1888H67.469V109.357C67.469 109.878 67.2813 110.334 66.906 110.725C66.5306 111.117 66.0664 111.311 65.5102 111.311C64.9539 111.311 64.4898 111.117 64.1144 110.725C63.739 110.334 63.5513 109.878 63.5513 109.357V80.1888H63.5479ZM50.0745 109.309C50.0745 109.864 49.8868 110.334 49.5114 110.725C49.136 111.117 48.6719 111.311 48.1156 111.311C47.5935 111.311 47.1362 111.117 46.7437 110.725C46.3513 110.334 46.1567 109.861 46.1567 109.309V95.4825H32.779V109.309C32.779 109.864 32.5913 110.334 32.2159 110.725C31.8405 111.117 31.3763 111.311 30.8201 111.311C30.2638 111.311 29.7997 111.117 29.4243 110.725C29.0489 110.334 28.8612 109.861 28.8612 109.309V77.844C28.8612 77.3233 29.0489 76.8673 29.4243 76.476C29.7997 76.0846 30.2638 75.8906 30.8201 75.8906C31.3763 75.8906 31.8405 76.0846 32.2159 76.476C32.5913 76.8673 32.779 77.3233 32.779 77.844V91.671H46.1567V77.844C46.1567 77.3233 46.3513 76.8673 46.7437 76.476C47.1362 76.0846 47.5935 75.8906 48.1156 75.8906C48.6378 75.8906 49.0951 76.0846 49.4875 76.476C49.88 76.8673 50.0745 77.3233 50.0745 77.844V109.309ZM2.15341 111.314C1.50159 111.314 0.976032 111.103 0.586985 110.678C0.194524 110.256 0 109.748 0 109.163V77.8917C0 77.337 0.180874 76.8673 0.539207 76.476C0.89754 76.0846 1.35484 75.8906 1.91111 75.8906C2.46738 75.8906 2.93834 76.0846 3.3308 76.476C3.72326 76.8673 3.91778 77.3404 3.91778 77.8917V102.813L17.5379 77.0613C17.7324 76.704 18.019 76.4181 18.3944 76.2071C18.7698 75.9961 19.1691 75.8906 19.5957 75.8906C20.2168 75.8906 20.7219 76.0948 21.1144 76.4998C21.5068 76.9082 21.7013 77.4186 21.7013 78.038V109.309C21.7013 109.864 21.5205 110.334 21.1621 110.725C20.8038 111.117 20.3465 111.311 19.7902 111.311C19.234 111.311 18.7596 111.117 18.3706 110.725C17.9815 110.334 17.7836 109.861 17.7836 109.309V84.3917L4.16349 110.191C3.96897 110.548 3.6823 110.827 3.30691 111.021C2.93151 111.219 2.54929 111.314 2.15683 111.314H2.15341Z" fill="#3A3A39"/>
<path d="M166.402 119.805L168.658 125.08H164.129L166.402 119.805ZM161.33 129.579H162.201L163.788 125.887H169.016L170.603 129.579H171.521L166.774 118.624H166.074L161.327 129.579H161.33ZM152.819 129.579H153.676V118.716H152.819V129.579ZM160.351 118.716H159.31L154.191 123.913L159.467 129.576H160.573L155.205 123.852L160.354 118.716H160.351ZM141.182 129.579L148.512 120.115V129.579H149.369V118.716H148.608L141.277 128.18V118.716H140.421V129.579H141.182ZM134.056 119.492C136.111 119.492 136.95 120.53 136.95 121.942C136.95 123.433 135.923 124.471 133.947 124.471C133.326 124.471 132.78 124.44 132.172 124.393V119.519C132.684 119.502 133.572 119.489 134.056 119.489V119.492ZM132.172 129.579V125.22C132.793 125.267 133.462 125.281 133.978 125.281C136.684 125.281 137.851 123.651 137.851 121.959C137.851 120.268 136.995 118.686 133.978 118.686C133.357 118.686 131.923 118.716 131.316 118.716V129.579H132.172ZM124.487 123.916C126.572 123.916 127.582 124.849 127.582 126.292C127.582 127.905 126.507 128.82 124.391 128.82C123.77 128.82 123.194 128.79 122.678 128.773V124.008C123.347 123.93 124.016 123.916 124.484 123.916H124.487ZM121.825 129.579C122.463 129.579 123.303 129.627 124.269 129.627C126.852 129.627 128.439 128.48 128.439 126.244C128.439 124.321 127.101 123.11 124.518 123.11C124.067 123.11 123.32 123.14 122.682 123.202V119.523H127.831V118.716H121.825V129.579ZM114.652 119.805L116.907 125.08H112.379L114.652 119.805ZM109.58 129.579H110.451L112.037 125.887H117.266L118.853 129.579H119.771L115.024 118.624H114.324L109.577 129.579H109.58ZM97.926 123.995C97.926 121.759 99.6698 120.489 102.315 120.489H102.345V127.503H102.284C99.7176 127.503 97.926 126.292 97.926 123.995ZM103.263 120.489C105.956 120.489 107.666 121.745 107.666 123.995C107.666 126.244 105.878 127.503 103.308 127.503H103.199V120.489H103.26H103.263ZM102.345 129.705H103.202V128.293H103.311C106.406 128.293 108.57 126.724 108.57 123.995C108.57 121.265 106.485 119.696 103.233 119.696H103.202V118.594H102.345V119.696H102.328C99.1375 119.696 97.0216 121.248 97.0216 123.995C97.0216 126.741 99.1682 128.293 102.267 128.293H102.345V129.705ZM87.5616 124.522C86.4559 124.352 85.3672 123.389 85.3672 122.102C85.3672 120.659 86.3467 119.479 88.3875 119.479C88.9779 119.479 89.6638 119.509 90.1006 119.526V124.522H87.565H87.5616ZM90.0972 129.579H90.9538V118.716C90.3156 118.716 89.2884 118.669 88.541 118.669C85.7699 118.669 84.4629 120.22 84.4629 122.143C84.4629 123.712 85.6129 124.798 86.8279 125.199L83.5926 129.576H84.5721L87.6674 125.325H90.0938V129.576L90.0972 129.579ZM77.6648 119.805L79.9205 125.08H75.3919L77.6648 119.805ZM72.5935 129.579H73.4637L75.0506 125.887H80.2789L81.8658 129.579H82.7838L78.0367 118.624H77.3371L72.5901 129.579H72.5935ZM69.6825 129.579H70.539V118.716H69.6825V123.634H62.8844V118.716H62.0278V129.579H62.8844V124.444H69.6825V129.579ZM53.6087 118.716H52.7521V129.579C53.3902 129.579 54.2912 129.61 55.1648 129.61C57.8404 129.61 59.458 128.398 59.458 126.149C59.458 124.161 58.168 122.923 55.3662 122.923C54.9464 122.923 54.2775 122.953 53.6087 123.001V118.72V118.716ZM55.3218 123.729C57.424 123.729 58.5571 124.597 58.5571 126.166C58.5571 127.918 57.3592 128.803 55.257 128.803C54.6495 128.803 54.0898 128.773 53.6087 128.756V123.821C54.2639 123.743 54.8987 123.729 55.3218 123.729ZM48.4452 129.579H49.3018V118.716H43.0634L42.9064 120.887C42.3775 128.368 40.9305 128.769 40.2002 128.725L40.1831 129.579C41.5686 129.705 43.06 128.943 43.6845 121.571L43.8722 119.523H48.4452V129.579ZM32.5421 129.579H38.7191V128.773H33.3987V124.474H38.0979V123.668H33.3987V119.526H38.5655V118.72H32.5421V129.582V129.579ZM25.7098 123.916C27.795 123.916 28.8052 124.849 28.8052 126.292C28.8052 127.905 27.7302 128.82 25.6143 128.82C24.9932 128.82 24.4164 128.79 23.9011 128.773V124.008C24.57 123.93 25.2389 123.916 25.7064 123.916H25.7098ZM23.0479 129.579C23.6861 129.579 24.5256 129.627 25.4914 129.627C28.0748 129.627 29.6617 128.48 29.6617 126.244C29.6617 124.321 28.324 123.11 25.7406 123.11C25.2901 123.11 24.5427 123.14 23.9045 123.202V119.523H29.0543V118.716H23.0479V129.579ZM14.0998 129.579H20.2768V128.773H14.9564V124.474H19.6557V123.668H14.9564V119.526H20.1233V118.72H14.0998V129.582V129.579ZM0.343255 129.579H1.19985V120.098L5.4623 125.917H5.60222L9.78619 120.05V129.579H10.6428V118.716H9.81691L5.59881 124.675L1.21008 118.716H0.339844V129.579H0.343255Z" fill="#575656"/>
</g>
<defs>
<linearGradient id="paint0_linear_2113_10806" x1="80.0654" y1="14.5008" x2="111.763" y2="14.5008" gradientUnits="userSpaceOnUse">
<stop stop-color="#E41B0E"/>
<stop offset="1" stop-color="#CB081F"/>
</linearGradient>
<linearGradient id="paint1_linear_2113_10806" x1="79.9323" y1="42.6754" x2="111.763" y2="42.6754" gradientUnits="userSpaceOnUse">
<stop stop-color="#6DB1E2"/>
<stop offset="1" stop-color="#234194"/>
</linearGradient>
<linearGradient id="paint2_linear_2113_10806" x1="59.7227" y1="14.5008" x2="79.9292" y2="14.5008" gradientUnits="userSpaceOnUse">
<stop stop-color="#E95110"/>
<stop offset="1" stop-color="#F18500"/>
</linearGradient>
<linearGradient id="paint3_linear_2113_10806" x1="59.7227" y1="42.6754" x2="79.9292" y2="42.6754" gradientUnits="userSpaceOnUse">
<stop stop-color="#5CB12E"/>
<stop offset="1" stop-color="#89BD21"/>
</linearGradient>
<clipPath id="clip0_2113_10806">
<rect width="172" height="130" fill="white"/>
</clipPath>
</defs>
</svg>
