<svg width="26" height="26" viewBox="0 0 26 26" fill="none" xmlns="http://www.w3.org/2000/svg">
<path fill-rule="evenodd" clip-rule="evenodd" d="M13.2793 25.9258C10.7278 25.9258 9.542 25.5517 7.48088 24.0553C6.17716 25.7388 2.0487 27.0544 1.86867 24.8035C1.86867 23.1137 1.49618 21.6859 1.07402 20.1271C0.571154 18.2067 0 16.068 0 12.9691C0 5.568 6.04678 0 13.211 0C20.3815 0 25.9999 5.84235 25.9999 13.0377C26.0115 16.44 24.6786 19.7079 22.2937 22.1241C19.9088 24.5404 16.6668 25.9077 13.2793 25.9258ZM13.3849 6.39728C9.89586 6.21646 7.17667 8.64194 6.57448 12.4454C6.07782 15.5941 6.95939 19.4288 7.71058 19.6283C8.07065 19.7156 8.97705 18.9798 9.542 18.4124C10.4762 19.0606 11.564 19.4499 12.6958 19.541C14.4336 19.625 16.1349 19.0208 17.4339 17.8584C18.7329 16.6959 19.526 15.068 19.6427 13.3245C19.7107 11.5775 19.093 9.87341 17.9227 8.57906C16.7523 7.2847 15.1229 6.50349 13.3849 6.40351V6.39728Z" fill="#252A36"/>
</svg>
