<svg width="8" height="5" viewBox="0 0 8 5" fill="none" xmlns="http://www.w3.org/2000/svg">
<g clip-path="url(#clip0_34_116)">
<path d="M4.24212 4.68542L7.74412 1.0375C7.82612 0.952084 7.87012 0.839584 7.87012 0.720834C7.87012 0.602084 7.82612 0.4875 7.74412 0.404167L7.48612 0.135417C7.31812 -0.039583 7.04612 -0.039583 6.87812 0.135417L3.93612 3.2L0.992121 0.13125C0.910122 0.0458334 0.802121 4.07392e-08 0.688122 3.57561e-08C0.574122 3.0773e-08 0.464122 0.0458334 0.384122 0.13125L0.126122 0.4C0.0441215 0.485417 0.000122263 0.597917 0.000122258 0.716667C0.000122252 0.835417 0.0441214 0.95 0.126122 1.03333L3.63012 4.68542C3.71212 4.77083 3.82012 4.81667 3.93612 4.81667C4.05212 4.81667 4.16012 4.77083 4.24212 4.68542Z" fill="#252A36"/>
</g>
<defs>
<clipPath id="clip0_34_116">
<rect width="5" height="8" fill="white" transform="translate(8) rotate(90)"/>
</clipPath>
</defs>
</svg>
