<svg width="108" height="52" viewBox="0 0 108 52" fill="none" xmlns="http://www.w3.org/2000/svg">
<g clip-path="url(#clip0_71_90)">
<path d="M36.3371 20.8575H39.8627V0.291992H34.7262C29.562 0.291992 26.8557 2.98054 26.8557 6.94801C26.8557 10.1126 28.3377 11.9797 30.9981 13.9028L26.3862 20.8575H30.2064L35.3429 13.0719L33.5663 11.8583C31.4031 10.3834 30.3537 9.2258 30.3537 6.74263C30.3537 4.54886 31.8726 3.07389 34.763 3.07389H36.3371V20.8575ZM104.41 21.1469C106.021 21.1469 107.153 20.8575 108 20.232V17.3661C107.125 17.9822 106.076 18.365 104.622 18.365C102.136 18.365 101.114 16.4139 101.114 13.3426C101.114 10.1126 102.375 8.46031 104.649 8.46031C105.993 8.46031 107.3 8.92708 108 9.37517V6.38789C107.273 5.96781 105.993 5.67842 104.272 5.67842C99.8348 5.67842 97.5243 8.89907 97.5243 13.4267C97.5243 18.4023 99.7704 21.1469 104.41 21.1469ZM82.7039 19.8493V16.974C81.6269 17.7209 79.8134 18.365 78.1197 18.365C75.579 18.365 74.6217 17.1607 74.4744 14.6682H82.8512V12.8105C82.8512 7.62948 80.6051 5.67842 77.1255 5.67842C72.9003 5.67842 70.8844 8.95508 70.8844 13.4547C70.8844 18.6357 73.3974 21.1469 77.8343 21.1469C80.0436 21.1469 81.6821 20.5588 82.7039 19.8493ZM93.7962 20.8575H97.7268L92.1577 12.9506L97.0641 5.96781H93.5569L88.6597 12.9506V5.96781H85.1801V20.8575H88.6597V13.66L93.7962 20.8575ZM70.0375 18.0756H68.491V5.96781H58.3652V7.24674C58.3652 10.8781 58.1351 15.5831 56.9108 18.0756H55.8246V24.2555H59.0372V20.8575H66.8248V24.2555H70.0375V18.0756ZM50.8998 5.96781V11.8583H46.2603V5.96781H42.7808V20.8575H46.2603V14.6402H50.8998V20.8575H54.3702V5.96781H50.8998ZM77.0703 8.46031C78.7917 8.46031 79.3164 9.90728 79.3164 11.7743V12.0637H74.4744C74.5665 9.7019 75.4041 8.46031 77.0703 8.46031ZM65.0206 18.0756H60.1142C61.0808 15.8258 61.3477 11.7743 61.3477 9.1978V8.74971H65.0206V18.0756ZM36.8342 47.7144H40.9489L33.7412 36.9136L40.2769 27.1489H36.6869L30.4089 36.6149V27.1489H26.8833V47.7144H30.4089V38.0618L36.8342 47.7144ZM52.7961 37.5577C52.7961 33.9543 50.9826 32.5914 47.3097 32.5914C45.0084 32.5914 43.195 33.3289 42.1456 33.9543V36.8856C43.0753 36.1668 45.1189 35.4013 46.9047 35.4013C48.5617 35.4013 49.3257 35.9894 49.3257 37.5951V38.4166H48.7642C43.4527 38.4166 41.0962 40.1996 41.0962 43.2149C41.0962 46.2301 42.9004 47.9198 45.5884 47.9198C47.6319 47.9198 48.5064 47.2383 49.1784 46.5289H49.3257C49.3533 46.9116 49.473 47.4157 49.5834 47.7144H52.971C52.8513 46.5009 52.7961 45.2873 52.7961 44.0737V37.5577ZM49.3257 44.1577C48.8838 44.8112 48.0646 45.3433 46.8403 45.3433C45.3858 45.3433 44.6494 44.5125 44.6494 43.2429C44.6494 41.5532 45.8461 40.9371 48.8286 40.9371H49.3257V44.1577ZM58.8071 32.8248H55.5945V51.9993H59.0648V45.9688C59.9485 47.2944 61.2281 48.0038 62.7193 48.0038C66.0976 48.0038 68.4358 45.2593 68.4358 40.2556C68.4358 35.2799 66.1621 32.5354 62.8942 32.5354C61.2557 32.5354 59.9117 33.3009 58.982 34.7478L58.8071 32.8248ZM61.8448 45.2219C60.0038 45.2219 59.0648 43.719 59.0648 40.2836C59.0648 36.8202 60.059 35.3173 62.0197 35.3173C63.916 35.3173 64.8457 36.8202 64.8457 40.2556C64.8457 43.719 63.8516 45.2219 61.8448 45.2219ZM80.6603 35.6067V32.8248H69.0157V35.6067H73.1028V47.7144H76.5732V35.6067H80.6603ZM82.7039 32.8248V47.7144H87.9877C91.4028 47.7144 93.8238 45.9408 93.8238 42.44C93.8238 39.126 91.6606 37.3804 88.0429 37.3804H86.1743V32.8248H82.7039ZM95.1034 32.8248V47.7144H98.5829V32.8248H95.1034ZM87.7852 44.9326H86.1743V40.1623H87.868C89.3593 40.1623 90.2338 40.8437 90.2338 42.5614C90.2338 44.2791 89.2672 44.9326 87.7852 44.9326Z" fill="white"/>
<path d="M8.26038 0.280273C4.01019 0.280273 0.564941 3.71815 0.564941 7.95925C0.564941 10.079 1.42568 11.9984 2.81778 13.3879C4.21027 14.7782 7.49084 16.7901 7.68323 18.9018C7.71207 19.2184 7.94179 19.4777 8.26038 19.4777C8.57897 19.4777 8.8087 19.2184 8.83754 18.9018C9.02993 16.7901 12.3105 14.7782 13.703 13.3879C15.0951 11.9984 15.9558 10.079 15.9558 7.95925C15.9558 3.71815 12.5106 0.280273 8.26038 0.280273Z" fill="#FF4433"/>
<path d="M8.26079 10.6477C9.74832 10.6477 10.9542 9.44444 10.9542 7.9601C10.9542 6.47576 9.74832 5.27246 8.26079 5.27246C6.77327 5.27246 5.56738 6.47576 5.56738 7.9601C5.56738 9.44444 6.77327 10.6477 8.26079 10.6477Z" fill="white"/>
</g>
<defs>
<clipPath id="clip0_71_90">
<rect width="108" height="52" fill="white"/>
</clipPath>
</defs>
</svg>
