<svg width="30" height="22" viewBox="0 0 30 22" fill="none" xmlns="http://www.w3.org/2000/svg">
<g clip-path="url(#clip0_34_110)">
<path d="M30 0.919501C29.8468 1.54173 29.6809 2.15856 29.534 2.78079C28.5638 6.9254 27.5936 11.07 26.6234 15.2146C26.183 17.0867 25.7426 18.9588 25.3149 20.8364C25.0787 21.8644 23.617 22.3568 22.634 21.7237C19.066 19.4134 15.5043 17.0976 11.9362 14.7818C11.8915 14.7547 11.8468 14.7168 11.783 14.6681C12.0128 14.4896 12.2298 14.3219 12.4532 14.1541C16.6596 10.9402 20.8723 7.7316 25.0787 4.51222C25.2574 4.37695 25.4234 4.21463 25.5447 4.04149C25.6979 3.81965 25.5574 3.64651 25.2574 3.70061C24.9894 3.74931 24.7149 3.84129 24.4851 3.96574C22.4553 5.04788 20.4319 6.14626 18.4021 7.23381C14.917 9.11133 11.4319 10.9834 7.95319 12.8664C7.74894 12.9746 7.58298 12.9908 7.35957 12.9259C5.33617 12.3415 3.31277 11.768 1.28936 11.1891C0.714894 11.0267 0.242553 10.7562 0 10.2584V9.91212C0.248936 9.50632 0.670213 9.28448 1.15532 9.12757C9.75319 6.25988 18.3574 3.39761 26.9617 0.54075C27.5234 0.356786 28.0915 0.172821 28.6723 0.0483745C29.3681 -0.097715 29.7319 0.0700173 30 0.567804V0.91409V0.919501Z" fill="#252A36"/>
</g>
<defs>
<clipPath id="clip0_34_110">
<rect width="30" height="22" fill="white"/>
</clipPath>
</defs>
</svg>
