<svg width="30" height="30" viewBox="0 0 30 30" fill="none" xmlns="http://www.w3.org/2000/svg">
<g clip-path="url(#clip0_2036_1895)">
<path d="M0 14.4C0 7.61175 0 4.21766 2.10712 2.10883C4.21424 0 7.60557 0 14.3883 0H15.5873C22.3701 0 25.7614 0 27.8686 2.10883C29.9757 4.21766 29.9757 7.61175 29.9757 14.4V15.6C29.9757 22.3882 29.9757 25.7823 27.8686 27.8912C25.7614 30 22.3701 30 15.5873 30H14.3883C7.60557 30 4.21424 30 2.10712 27.8912C0 25.7823 0 22.3882 0 15.6V14.4Z" fill="#35A9E5"/>
<g clip-path="url(#clip1_2036_1895)">
<path d="M22 9.54282C21.9183 9.91051 21.8298 10.275 21.7515 10.6427C21.234 13.0918 20.7166 15.5409 20.1991 17.9899C19.9643 19.0962 19.7294 20.2024 19.5013 21.3119C19.3753 21.9194 18.5957 22.2103 18.0715 21.8362C16.1685 20.471 14.2689 19.1026 12.366 17.7342C12.3421 17.7182 12.3183 17.6958 12.2843 17.667C12.4068 17.5615 12.5226 17.4624 12.6417 17.3633C14.8851 15.4641 17.1319 13.5682 19.3753 11.6658C19.4706 11.5859 19.5591 11.4899 19.6238 11.3876C19.7055 11.2565 19.6306 11.1542 19.4706 11.1862C19.3277 11.215 19.1813 11.2693 19.0587 11.3429C17.9762 11.9823 16.897 12.6314 15.8145 13.274C13.9557 14.3835 12.097 15.4897 10.2417 16.6023C10.1328 16.6663 10.0443 16.6759 9.92511 16.6375C8.84596 16.2922 7.76681 15.9533 6.68766 15.6112C6.38128 15.5153 6.12936 15.3554 6 15.0613V14.8566C6.13277 14.6169 6.35745 14.4858 6.61617 14.393C11.2017 12.6985 15.7906 11.0072 20.3796 9.31902C20.6791 9.21031 20.9821 9.1016 21.2919 9.02807C21.663 8.94174 21.857 9.04086 22 9.335V9.53963V9.54282Z" fill="white"/>
</g>
</g>
<defs>
<clipPath id="clip0_2036_1895">
<rect width="30" height="30" fill="white"/>
</clipPath>
<clipPath id="clip1_2036_1895">
<rect width="16" height="13" fill="white" transform="translate(6 9)"/>
</clipPath>
</defs>
</svg>
