<svg width="42" height="42" viewBox="0 0 42 42" fill="none" xmlns="http://www.w3.org/2000/svg">
<path d="M17.5877 4.42775L7.05266 11.3052C3.67516 13.5102 3.67516 18.4452 7.05266 20.6502L17.5877 27.5277C19.4777 28.7702 22.5927 28.7702 24.4827 27.5277L34.9652 20.6502C38.3252 18.4452 38.3252 13.5277 34.9652 11.3227L24.4827 4.44525C22.5927 3.18525 19.4777 3.18525 17.5877 4.42775Z" stroke="#EF4E06" stroke-width="2" stroke-linecap="round" stroke-linejoin="round"/>
<path d="M9.85344 22.8906L9.83594 31.0981C9.83594 33.3206 11.5509 35.7006 13.6509 36.4006L19.2334 38.2556C20.1959 38.5706 21.7884 38.5706 22.7684 38.2556L28.3509 36.4006C30.4509 35.7006 32.1659 33.3206 32.1659 31.0981V22.9781" stroke="#EF4E06" stroke-width="2" stroke-linecap="round" stroke-linejoin="round"/>
<path d="M37.4492 26.25V15.75" stroke="#EF4E06" stroke-width="2" stroke-linecap="round" stroke-linejoin="round"/>
</svg>
