<svg width="42" height="42" viewBox="0 0 42 42" fill="none" xmlns="http://www.w3.org/2000/svg">
<path d="M21.2617 28.875V32.55" stroke="#EF4E06" stroke-width="2" stroke-linecap="round" stroke-linejoin="round"/>
<path d="M12.5117 38.5H30.0117V36.75C30.0117 34.825 28.4367 33.25 26.5117 33.25H16.0117C14.0867 33.25 12.5117 34.825 12.5117 36.75V38.5V38.5Z" stroke="#EF4E06" stroke-width="2" stroke-miterlimit="10"/>
<path d="M10.7617 38.5H31.7617" stroke="#EF4E06" stroke-width="2" stroke-linecap="round" stroke-linejoin="round"/>
<path d="M21 28C14.2275 28 8.75 22.5225 8.75 15.75V10.5C8.75 6.6325 11.8825 3.5 15.75 3.5H26.25C30.1175 3.5 33.25 6.6325 33.25 10.5V15.75C33.25 22.5225 27.7725 28 21 28Z" stroke="#EF4E06" stroke-width="2" stroke-linecap="round" stroke-linejoin="round"/>
<path d="M9.57281 20.3883C8.26031 19.9683 7.10531 19.1983 6.19531 18.2883C4.62031 16.5383 3.57031 14.4383 3.57031 11.9883C3.57031 9.53828 5.49531 7.61328 7.94531 7.61328H9.08281C8.73281 8.41828 8.55781 9.31078 8.55781 10.2383V15.4883C8.55781 17.2383 8.92531 18.8833 9.57281 20.3883Z" stroke="#EF4E06" stroke-width="2" stroke-linecap="round" stroke-linejoin="round"/>
<path d="M32.4258 20.3883C33.7383 19.9683 34.8933 19.1983 35.8033 18.2883C37.3783 16.5383 38.4283 14.4383 38.4283 11.9883C38.4283 9.53828 36.5033 7.61328 34.0533 7.61328H32.9158C33.2658 8.41828 33.4408 9.31078 33.4408 10.2383V15.4883C33.4408 17.2383 33.0733 18.8833 32.4258 20.3883Z" stroke="#EF4E06" stroke-width="2" stroke-linecap="round" stroke-linejoin="round"/>
</svg>
