<svg width="22" height="22" viewBox="0 0 22 22" fill="none" xmlns="http://www.w3.org/2000/svg">
<g clip-path="url(#clip0_2053_6253)">
<path d="M0 2.18877C0.124103 1.85595 0.203077 1.50057 0.377949 1.20159C0.829231 0.440055 1.53436 0.0282597 2.42 0.0169777C4.10667 -0.00558644 5.79333 5.45876e-05 7.48 0.0113366C8.81128 0.0226187 9.88872 1.1057 9.90564 2.43698C9.92256 4.11236 9.92256 5.78775 9.90564 7.46313C9.89436 8.80005 8.80564 9.87749 7.46308 9.88877C5.79897 9.9057 4.13487 9.90005 2.47077 9.88877C1.24667 9.87749 0.253846 9.01441 0.0451282 7.80723C0.0282051 7.77903 0.0112821 7.75082 0 7.71698C0 5.87236 0 4.02775 0 2.18877ZM4.95282 8.21903C5.73128 8.21903 6.5041 8.21903 7.28256 8.21903C7.91436 8.21903 8.22462 7.90877 8.22462 7.28262C8.22462 5.7257 8.22462 4.16877 8.22462 2.61185C8.22462 1.99698 7.90872 1.68108 7.29949 1.68108C5.73128 1.68108 4.16872 1.68108 2.60051 1.68108C1.99692 1.68108 1.67538 1.99698 1.67538 2.59493C1.67538 4.16313 1.67538 5.73698 1.67538 7.30518C1.67538 7.89749 1.99692 8.21339 2.60051 8.21903C3.38462 8.21903 4.16872 8.21903 4.95282 8.21903Z" fill="#CBD4DD"/>
<path d="M0 13.7472C0.124103 13.4088 0.203077 13.0477 0.389231 12.7431C0.846154 11.9929 1.54564 11.5867 2.42 11.5754C4.10667 11.5529 5.78769 11.5585 7.47436 11.5754C8.80564 11.5867 9.88872 12.6698 9.9 13.9954C9.91692 15.6708 9.91692 17.3462 9.9 19.0216C9.88872 20.2288 9.01436 21.2159 7.81846 21.4247C7.78461 21.4247 7.75641 21.4472 7.72256 21.4585H2.18308C2.14923 21.4472 2.12103 21.4303 2.08718 21.4247C1.31436 21.2949 0.722051 20.8944 0.344103 20.2175C0.186154 19.9298 0.112821 19.597 0 19.2867C0 17.4421 0 15.5975 0 13.7585L0 13.7472ZM8.23026 16.5113C8.23026 15.7385 8.23026 14.96 8.23026 14.1872C8.23026 13.5554 7.92 13.2452 7.29385 13.2452C5.73692 13.2452 4.17436 13.2452 2.61744 13.2452C2.00256 13.2452 1.68103 13.5554 1.68103 14.1703C1.68103 15.7329 1.68103 17.2954 1.68103 18.858C1.68103 19.4616 1.99692 19.7775 2.59487 19.7775C4.16872 19.7775 5.74256 19.7775 7.31641 19.7775C7.91436 19.7775 8.23026 19.4559 8.23026 18.8524C8.23026 18.0682 8.23026 17.2898 8.23026 16.5057V16.5113Z" fill="#CBD4DD"/>
<path d="M21.4921 7.67735C21.3962 8.11735 21.2665 8.54042 20.9788 8.90145C20.488 9.52196 19.8449 9.88299 19.0552 9.89427C17.3742 9.91119 15.6988 9.91683 14.0178 9.89427C12.709 9.87735 11.609 8.78863 11.5921 7.47991C11.5696 5.79889 11.5696 4.11222 11.5921 2.43119C11.609 1.12248 12.709 0.0337587 14.0178 0.0168356C15.6988 -0.00572849 17.3742 -8.74638e-05 19.0552 0.0168356C20.2398 0.0281177 21.2439 0.9194 21.4526 2.09273C21.4583 2.13786 21.4808 2.18299 21.4921 2.23376V7.67735ZM19.8111 4.96402C19.8111 4.17427 19.8111 3.38453 19.8111 2.59478C19.8111 2.02504 19.467 1.68658 18.8916 1.68658C17.3234 1.68658 15.7552 1.68658 14.1926 1.68658C13.606 1.68658 13.2675 2.02504 13.2675 2.61171C13.2675 4.17427 13.2675 5.73684 13.2675 7.30504C13.2675 7.88607 13.6116 8.22453 14.1983 8.22453C15.7608 8.22453 17.3178 8.22453 18.8803 8.22453C19.4783 8.22453 19.8167 7.88607 19.8167 7.29376C19.8167 6.52094 19.8167 5.74248 19.8167 4.96966L19.8111 4.96402Z" fill="#CBD4DD"/>
<path d="M13.809 21.4585C13.3633 21.3626 12.9346 21.2272 12.5679 20.9339C11.9531 20.4431 11.5977 19.8113 11.592 19.0272C11.5751 17.3518 11.5695 15.6764 11.592 14.0067C11.609 12.6867 12.7033 11.598 14.0233 11.581C15.6987 11.5585 17.3797 11.5641 19.0551 11.581C20.2397 11.5923 21.2438 12.4836 21.4525 13.6569C21.4582 13.7021 21.4807 13.7472 21.492 13.798V19.2472C21.4807 19.2923 21.4638 19.3375 21.4525 19.3826C21.2495 20.3698 20.6628 21.0298 19.7095 21.3513C19.5684 21.4021 19.4161 21.4246 19.2695 21.4641H13.8146L13.809 21.4585ZM13.2618 16.5113C13.2618 17.2954 13.2618 18.0739 13.2618 18.858C13.2618 19.4446 13.6002 19.7831 14.1869 19.7831C15.7551 19.7831 17.3233 19.7831 18.8859 19.7831C19.4669 19.7831 19.811 19.439 19.811 18.858C19.811 17.301 19.811 15.7441 19.811 14.1872C19.811 13.5892 19.4725 13.2508 18.8746 13.2508C17.312 13.2508 15.7551 13.2508 14.1925 13.2508C13.5946 13.2508 13.2618 13.5892 13.2561 14.1872C13.2561 14.96 13.2561 15.7385 13.2561 16.5113H13.2618Z" fill="#CBD4DD"/>
</g>
<defs>
<clipPath id="clip0_2053_6253">
<rect width="22" height="22" fill="white"/>
</clipPath>
</defs>
</svg>
