<svg width="96" height="96" viewBox="0 0 96 96" fill="none" xmlns="http://www.w3.org/2000/svg">
<mask id="mask0_2119_17223" style="mask-type:luminance" maskUnits="userSpaceOnUse" x="39" y="0" width="54" height="51">
<path d="M93.0001 0H39.7603V50.3268H93.0001V0Z" fill="white"/>
</mask>
<g mask="url(#mask0_2119_17223)">
<path d="M93.0001 0H39.7603V50.3268H93.0001V0Z" fill="url(#paint0_linear_2119_17223)"/>
</g>
<mask id="mask1_2119_17223" style="mask-type:luminance" maskUnits="userSpaceOnUse" x="39" y="52" width="54" height="44">
<path d="M93.0001 52.1094V92.3318C93.0001 94.3515 91.3474 95.9991 89.3347 95.9991H39.7603V52.1094H93.0001Z" fill="white"/>
</mask>
<g mask="url(#mask1_2119_17223)">
<path d="M93.0001 52.1094H39.7603V95.9991H93.0001V52.1094Z" fill="url(#paint1_linear_2119_17223)"/>
</g>
<mask id="mask2_2119_17223" style="mask-type:luminance" maskUnits="userSpaceOnUse" x="3" y="0" width="35" height="51">
<path d="M6.6654 0H37.9482V50.3268H3V3.66732C3 1.65354 4.65268 0 6.6654 0Z" fill="white"/>
</mask>
<g mask="url(#mask2_2119_17223)">
<path d="M37.9482 0H3V50.3268H37.9482V0Z" fill="url(#paint2_linear_2119_17223)"/>
</g>
<mask id="mask3_2119_17223" style="mask-type:luminance" maskUnits="userSpaceOnUse" x="3" y="52" width="35" height="44">
<path d="M37.9482 52.1094H3V95.9991H37.9482V52.1094Z" fill="white"/>
</mask>
<g mask="url(#mask3_2119_17223)">
<path d="M37.9482 52.1094H3V95.9991H37.9482V52.1094Z" fill="url(#paint3_linear_2119_17223)"/>
</g>
<path fill-rule="evenodd" clip-rule="evenodd" d="M15.4601 24.3788C15.5073 24.302 15.5604 24.237 15.6253 24.178C15.7257 24.0776 15.7965 24.0362 15.8024 24.0362L15.8083 24.0303L15.8142 24.0244L22.8381 18.3551C23.0093 18.2193 23.2158 18.1484 23.4165 18.1484H77.3233C77.8369 18.1484 78.25 18.5618 78.25 19.0756V75.739C78.25 76.052 78.0907 76.3295 77.8546 76.4949L70.7126 82.2587C70.5001 82.4299 70.2345 82.489 69.9866 82.4477C69.904 82.4595 69.8155 82.4595 69.721 82.4595H65.1998C65.2352 82.5776 65.2529 82.7075 65.2529 82.8374V83.4221C65.2529 84.1366 64.6686 84.7272 63.9485 84.7272H62.5378C61.8236 84.7272 61.2333 84.1425 61.2333 83.4221V82.8374C61.2333 82.7075 61.2511 82.5835 61.2865 82.4595H25.0751C25.1105 82.5776 25.1282 82.7075 25.1282 82.8374V83.4221C25.1282 84.1366 24.5439 84.7272 23.8238 84.7272H22.4131C21.6989 84.7272 21.1087 84.1425 21.1087 83.4221V82.8374C21.1087 82.7075 21.1264 82.5835 21.1618 82.4595H16.2274C15.3361 82.4595 15.3007 81.5323 15.3007 81.5323V25.0047C15.3007 25.0047 15.2594 24.6327 15.4483 24.3788" fill="#E3000F"/>
<path d="M77.3409 19.0742H23.4341V75.7376H77.3409V19.0742Z" fill="white"/>
<path d="M77.8724 18.3535H22.856V76.4992H77.8724V18.3535Z" fill="#ECECEC"/>
<path fill-rule="evenodd" clip-rule="evenodd" d="M16.2451 24.8793L23.4343 19.0742V75.7435L16.2451 81.5427V24.8793Z" fill="#B1B2B3"/>
<path fill-rule="evenodd" clip-rule="evenodd" d="M16.2451 36.2133L23.4343 30.4082H60.7376L53.5425 36.2133H16.2451Z" fill="#D9DADA"/>
<path fill-rule="evenodd" clip-rule="evenodd" d="M23.4343 75.7441H77.3411L70.1519 81.5434H16.2451L23.4343 75.7441Z" fill="#D9DADA"/>
<path fill-rule="evenodd" clip-rule="evenodd" d="M53.5425 24.8793L60.7375 19.0742V75.7435L53.5425 81.5427V24.8793Z" fill="#B1B2B3"/>
<path fill-rule="evenodd" clip-rule="evenodd" d="M74.7203 20.0028H23.7588L18.8598 23.9536H69.8272L74.7262 20.0028H74.7203ZM23.4342 18.1484H77.341C77.8545 18.1484 78.2677 18.5618 78.2677 19.0756C78.2677 19.3886 78.1083 19.6662 77.8722 19.8374L70.7303 25.6012C70.5591 25.737 70.3525 25.8079 70.1519 25.8079H16.245C15.7315 25.8079 15.3184 25.3945 15.3184 24.8807C15.3184 24.5677 15.4718 24.2902 15.7138 24.1189L22.8617 18.3551C23.0328 18.2193 23.2394 18.1484 23.4401 18.1484H23.4342Z" fill="#97989C"/>
<path fill-rule="evenodd" clip-rule="evenodd" d="M53.5425 47.5454L60.7375 41.7402H77.341L70.1519 47.5454H53.5425Z" fill="#D9DADA"/>
<path fill-rule="evenodd" clip-rule="evenodd" d="M53.5425 58.8773L60.7375 53.0781H77.341L70.1519 58.8773H53.5425Z" fill="#D9DADA"/>
<path fill-rule="evenodd" clip-rule="evenodd" d="M53.5425 70.2113L60.7375 64.4121H77.341L70.1519 70.2113H53.5425Z" fill="#D9DADA"/>
<path fill-rule="evenodd" clip-rule="evenodd" d="M53.5425 36.2133L60.7375 30.4082H77.341L70.1519 36.2133H53.5425Z" fill="#D9DADA"/>
<path fill-rule="evenodd" clip-rule="evenodd" d="M69.6206 24.1188L76.7625 18.355C77.158 18.0361 77.7423 18.1011 78.0611 18.4968C78.1968 18.668 78.2677 18.8747 78.2617 19.0755V75.7389C78.2617 76.0519 78.1024 76.3294 77.8663 76.5007L70.7244 82.2645C70.3289 82.5834 69.7446 82.5184 69.4258 82.1227C69.2901 81.9515 69.2192 81.7448 69.2192 81.544V24.8806C69.2192 24.5676 69.3727 24.2901 69.6147 24.1188" fill="#B1B2B3"/>
<path fill-rule="evenodd" clip-rule="evenodd" d="M23.4343 19.0742H77.3411L70.1519 24.8793H16.2451L23.4343 19.0742Z" fill="#E7E7E7"/>
<path fill-rule="evenodd" clip-rule="evenodd" d="M54.4693 25.8075V35.2858H69.2194V25.8075H54.4693ZM54.4693 46.6185H69.2194V37.1402H54.4693V46.6185ZM54.4693 57.9512H69.2194V48.4729H54.4693V57.9512ZM69.2194 71.1382H54.4693V80.6166H69.2194V71.1382ZM54.4693 69.2839H69.2194V59.8055H54.4693V69.2839ZM35.9297 80.6166V37.1402H52.6159V80.6225H35.9297V80.6166ZM33.858 37.1343V80.6166H17.1718V37.1402H33.858V37.1343ZM33.858 35.2799V25.8016H17.1718V35.2799H33.858ZM35.9297 25.8016V35.2799H52.6159V25.8016H35.9297ZM15.3185 79.8488V25.0044C15.3185 25.0044 15.2772 24.6323 15.466 24.3784C15.649 24.1244 15.8143 24.0358 15.8143 24.0358C15.8143 24.0358 15.8969 23.9473 16.1212 23.9473H69.426C69.426 23.9473 71.0728 24.1599 71.0728 25.6303V81.2898C71.0728 81.8626 70.7717 82.465 69.7329 82.465H65.2117C65.2471 82.5831 65.2648 82.713 65.2648 82.8429V83.4276C65.2648 84.1421 64.6804 84.7327 63.9604 84.7327H62.5497C61.8355 84.7327 61.2452 84.1481 61.2452 83.4276V82.8429C61.2452 82.713 61.2629 82.589 61.2984 82.465H25.0752C25.1106 82.5831 25.1283 82.713 25.1283 82.8429V83.4276C25.1283 84.1421 24.544 84.7327 23.8239 84.7327H22.4132C21.699 84.7327 21.1088 84.1481 21.1088 83.4276V82.8429C21.1088 82.713 21.1265 82.589 21.1619 82.465H16.2275C15.3362 82.465 15.3008 81.5378 15.3008 81.5378V79.8429L15.3185 79.8488Z" fill="#96979B"/>
<path d="M33.8575 25.8066H17.1714V80.6216H33.8575V25.8066Z" fill="white"/>
<path d="M52.6158 25.8066H35.9297V80.6216H52.6158V25.8066Z" fill="white"/>
<path fill-rule="evenodd" clip-rule="evenodd" d="M30.5761 48.5254H30.8535C31.3257 48.5254 31.7093 48.9093 31.7093 49.3817V57.047C31.7093 57.5195 31.3257 57.9033 30.8535 57.9033H30.5761C30.1039 57.9033 29.7202 57.5195 29.7202 57.047V49.3817C29.7202 48.9093 30.1039 48.5254 30.5761 48.5254Z" fill="#7D7D7D"/>
<path fill-rule="evenodd" clip-rule="evenodd" d="M38.934 48.5254H39.2114C39.6836 48.5254 40.0672 48.9093 40.0672 49.3817V57.047C40.0672 57.5195 39.6836 57.9033 39.2114 57.9033H38.934C38.4618 57.9033 38.0781 57.5195 38.0781 57.047V49.3817C38.0781 48.9093 38.4618 48.5254 38.934 48.5254Z" fill="#7D7D7D"/>
<defs>
<linearGradient id="paint0_linear_2119_17223" x1="38.1843" y1="25.1634" x2="93.006" y2="25.1634" gradientUnits="userSpaceOnUse">
<stop stop-color="#E41B0E"/>
<stop offset="1" stop-color="#CB081F"/>
</linearGradient>
<linearGradient id="paint1_linear_2119_17223" x1="37.9541" y1="74.0543" x2="93.006" y2="74.0543" gradientUnits="userSpaceOnUse">
<stop stop-color="#6DB1E2"/>
<stop offset="1" stop-color="#234194"/>
</linearGradient>
<linearGradient id="paint2_linear_2119_17223" x1="3" y1="25.1634" x2="37.9482" y2="25.1634" gradientUnits="userSpaceOnUse">
<stop stop-color="#E95110"/>
<stop offset="1" stop-color="#F18500"/>
</linearGradient>
<linearGradient id="paint3_linear_2119_17223" x1="3" y1="74.0543" x2="37.9482" y2="74.0543" gradientUnits="userSpaceOnUse">
<stop stop-color="#5CB12E"/>
<stop offset="1" stop-color="#89BD21"/>
</linearGradient>
</defs>
</svg>
