<svg width="42" height="42" viewBox="0 0 42 42" fill="none" xmlns="http://www.w3.org/2000/svg">
<path d="M15.75 38.5H26.25C35 38.5 38.5 35 38.5 26.25V15.75C38.5 7 35 3.5 26.25 3.5H15.75C7 3.5 3.5 7 3.5 15.75V26.25C3.5 35 7 38.5 15.75 38.5Z" stroke="#EF4E06" stroke-width="2" stroke-linecap="round" stroke-linejoin="round"/>
<path d="M22.05 32.375H28.7C31.325 32.375 32.375 31.325 32.375 28.7V25.55C32.375 22.925 31.325 21.875 28.7 21.875H22.05C19.425 21.875 18.375 22.925 18.375 25.55V28.7C18.375 31.325 19.425 32.375 22.05 32.375Z" stroke="#EF4E06" stroke-width="2" stroke-linecap="round" stroke-linejoin="round"/>
</svg>
