<svg width="42" height="42" viewBox="0 0 42 42" fill="none" xmlns="http://www.w3.org/2000/svg">
<path d="M17.5 7.875V31.5C17.5 33.39 16.73 35.1225 15.505 36.3825L15.435 36.4525C15.2775 36.61 15.1025 36.7675 14.945 36.89C14.42 37.345 13.825 37.695 13.2125 37.94C13.02 38.0275 12.8275 38.0975 12.635 38.1675C11.9525 38.395 11.2175 38.5 10.5 38.5C10.0275 38.5 9.55502 38.4475 9.10002 38.36C8.87252 38.3075 8.645 38.255 8.4175 38.185C8.1375 38.0975 7.87501 38.01 7.61251 37.8875C7.61251 37.87 7.61249 37.87 7.59499 37.8875C7.10499 37.6425 6.63251 37.3625 6.19501 37.03L6.1775 37.0125C5.95 36.8375 5.74002 36.6625 5.54752 36.4525C5.35502 36.2425 5.16249 36.0325 4.96999 35.805C4.63749 35.3675 4.35751 34.895 4.11251 34.405C4.13001 34.3875 4.13001 34.3875 4.11251 34.3875C4.11251 34.3875 4.11249 34.37 4.09499 34.3525C3.98999 34.1075 3.90249 33.845 3.81499 33.5825C3.74499 33.355 3.69248 33.1275 3.63998 32.9C3.55248 32.445 3.5 31.9725 3.5 31.5V7.875C3.5 5.25 5.25 3.5 7.875 3.5H13.125C15.75 3.5 17.5 5.25 17.5 7.875Z" stroke="#EF4E06" stroke-width="2" stroke-linecap="round" stroke-linejoin="round"/>
<path d="M38.5 28.875V34.125C38.5 36.75 36.75 38.5 34.125 38.5H10.5C11.2175 38.5 11.9525 38.395 12.635 38.1675C12.8275 38.0975 13.02 38.0275 13.2125 37.94C13.825 37.695 14.42 37.345 14.945 36.89C15.1025 36.7675 15.2775 36.61 15.435 36.4525L15.505 36.3825L27.405 24.5H34.125C36.75 24.5 38.5 26.25 38.5 28.875Z" stroke="#EF4E06" stroke-width="2" stroke-linecap="round" stroke-linejoin="round"/>
<path d="M8.41891 38.1845C7.36891 37.8695 6.37144 37.292 5.54894 36.452C4.70894 35.6295 4.13141 34.632 3.81641 33.582C4.49891 35.7695 6.23141 37.502 8.41891 38.1845Z" stroke="#EF4E06" stroke-width="2" stroke-linecap="round" stroke-linejoin="round"/>
<path d="M32.1464 19.7572L27.4039 24.4997L15.5039 36.3822C16.7289 35.1222 17.4989 33.3897 17.4989 31.4997V14.5947L22.2414 9.85219C24.0964 7.99719 26.5814 7.99719 28.4364 9.85219L32.1464 13.5622C34.0014 15.4172 34.0014 17.9022 32.1464 19.7572Z" stroke="#EF4E06" stroke-width="2" stroke-linecap="round" stroke-linejoin="round"/>
<path d="M10.5 33.25C11.4665 33.25 12.25 32.4665 12.25 31.5C12.25 30.5335 11.4665 29.75 10.5 29.75C9.5335 29.75 8.75 30.5335 8.75 31.5C8.75 32.4665 9.5335 33.25 10.5 33.25Z" stroke="#EF4E06" stroke-width="2" stroke-linecap="round" stroke-linejoin="round"/>
</svg>
