<svg width="42" height="42" viewBox="0 0 42 42" fill="none" xmlns="http://www.w3.org/2000/svg">
<path d="M29.2251 33.215H12.7751C12.0401 33.215 11.2176 32.6375 10.9726 31.9375L3.7276 11.6725C2.6951 8.76751 3.9026 7.87501 6.3876 9.66001L13.2126 14.5425C14.3501 15.33 15.6451 14.9275 16.1351 13.65L19.2151 5.4425C20.1951 2.8175 21.8226 2.8175 22.8026 5.4425L25.8826 13.65C26.3726 14.9275 27.6676 15.33 28.7876 14.5425L35.1926 9.975C37.9226 8.015 39.2351 9.01251 38.1151 12.18L31.0451 31.9725C30.7826 32.6375 29.9601 33.215 29.2251 33.215Z" stroke="#EF4E06" stroke-width="2" stroke-linecap="round" stroke-linejoin="round"/>
<path d="M11.375 38.5H30.625" stroke="#EF4E06" stroke-width="2" stroke-linecap="round" stroke-linejoin="round"/>
<path d="M16.625 24.5H25.375" stroke="#EF4E06" stroke-width="2" stroke-linecap="round" stroke-linejoin="round"/>
</svg>
