<svg width="42" height="42" viewBox="0 0 42 42" fill="none" xmlns="http://www.w3.org/2000/svg">
<path d="M17.2725 9.92243L11.2876 13.5625L8.55756 9.08246C7.56006 7.43746 8.08505 5.26746 9.73005 4.26996C11.3751 3.27246 13.5451 3.79743 14.5426 5.44243L17.2725 9.92243Z" stroke="#EF4E06" stroke-width="2" stroke-linecap="round" stroke-linejoin="round"/>
<path d="M20.685 16.0298L15.155 19.3899C11.935 21.3499 10.9549 25.3049 12.5124 28.4549L16.0999 35.7698C17.2549 38.1323 20.055 38.9548 22.295 37.5723L33.5475 30.7298C35.805 29.3648 36.3475 26.5123 34.79 24.3948L29.9425 17.8499C27.8425 15.0149 23.905 14.0698 20.685 16.0298Z" stroke="#EF4E06" stroke-width="2" stroke-linecap="round" stroke-linejoin="round"/>
<path d="M18.824 8.92176L9.85596 14.3828L13.4967 20.3615L22.4647 14.9005L18.824 8.92176Z" stroke="#EF4E06" stroke-width="2" stroke-linecap="round" stroke-linejoin="round"/>
<path d="M25.0425 29.418L27.93 34.1605" stroke="#EF4E06" stroke-width="2" stroke-linecap="round" stroke-linejoin="round"/>
<path d="M20.5625 32.1475L23.45 36.89" stroke="#EF4E06" stroke-width="2" stroke-linecap="round" stroke-linejoin="round"/>
<path d="M29.5225 26.6875L32.41 31.43" stroke="#EF4E06" stroke-width="2" stroke-linecap="round" stroke-linejoin="round"/>
</svg>
