<svg width="28" height="28" viewBox="0 0 28 28" fill="none" xmlns="http://www.w3.org/2000/svg">
<path d="M16.332 18.6671C16.332 20.7321 15.4337 22.5988 13.9987 23.8704C12.762 24.9904 11.1287 25.6671 9.33203 25.6671C5.47036 25.6671 2.33203 22.5288 2.33203 18.6671C2.33203 15.4471 4.52536 12.7171 7.4887 11.9121C8.2937 13.9421 10.0204 15.5054 12.1554 16.0888C12.7387 16.2521 13.357 16.3338 13.9987 16.3338C14.6404 16.3338 15.2587 16.2521 15.842 16.0888C16.157 16.8821 16.332 17.7571 16.332 18.6671Z" stroke="white" stroke-width="1.5" stroke-linecap="round" stroke-linejoin="round"/>
<path d="M21 9.33398C21 10.244 20.825 11.119 20.51 11.9123C19.705 13.9423 17.9783 15.5057 15.8433 16.089C15.26 16.2523 14.6417 16.334 14 16.334C13.3583 16.334 12.74 16.2523 12.1567 16.089C10.0217 15.5057 8.295 13.9423 7.49 11.9123C7.175 11.119 7 10.244 7 9.33398C7 5.47232 10.1383 2.33398 14 2.33398C17.8617 2.33398 21 5.47232 21 9.33398Z" stroke="white" stroke-width="1.5" stroke-linecap="round" stroke-linejoin="round"/>
<path d="M25.6667 18.6671C25.6667 22.5288 22.5283 25.6671 18.6667 25.6671C16.87 25.6671 15.2367 24.9904 14 23.8704C15.435 22.5988 16.3333 20.7321 16.3333 18.6671C16.3333 17.7571 16.1583 16.8821 15.8433 16.0888C17.9783 15.5054 19.705 13.9421 20.51 11.9121C23.4733 12.7171 25.6667 15.4471 25.6667 18.6671Z" stroke="white" stroke-width="1.5" stroke-linecap="round" stroke-linejoin="round"/>
</svg>
