<svg width="28" height="28" viewBox="0 0 28 28" fill="none" xmlns="http://www.w3.org/2000/svg">
<path d="M19.4831 22.1439H8.51641C8.02641 22.1439 7.47808 21.7589 7.31474 21.2922L2.48474 7.78224C1.79641 5.84557 2.60141 5.25057 4.25808 6.44057L8.80808 9.69557C9.56641 10.2206 10.4297 9.95224 10.7564 9.10057L12.8097 3.62891C13.4631 1.87891 14.5481 1.87891 15.2014 3.62891L17.2547 9.10057C17.5814 9.95224 18.4447 10.2206 19.1914 9.69557L23.4614 6.65057C25.2814 5.34391 26.1564 6.00891 25.4097 8.12057L20.6964 21.3156C20.5214 21.7589 19.9731 22.1439 19.4831 22.1439Z" stroke="white" stroke-width="1.5" stroke-linecap="round" stroke-linejoin="round"/>
<path d="M7.58203 25.666H20.4154" stroke="white" stroke-width="1.5" stroke-linecap="round" stroke-linejoin="round"/>
<path d="M11.082 16.334H16.9154" stroke="white" stroke-width="1.5" stroke-linecap="round" stroke-linejoin="round"/>
</svg>
