<svg width="75" height="80" viewBox="0 0 75 80" fill="none" xmlns="http://www.w3.org/2000/svg">
<g clip-path="url(#clip0_2081_17027)">
<mask id="mask0_2081_17027" style="mask-type:luminance" maskUnits="userSpaceOnUse" x="30" y="0" width="45" height="42">
<path d="M74.745 0H30.5293V41.8258H74.745V0Z" fill="white"/>
</mask>
<g mask="url(#mask0_2081_17027)">
<path d="M74.745 0H30.5293V41.8258H74.745V0Z" fill="url(#paint0_linear_2081_17027)"/>
</g>
<mask id="mask1_2081_17027" style="mask-type:luminance" maskUnits="userSpaceOnUse" x="30" y="43" width="45" height="37">
<path d="M74.745 43.3079V76.7361C74.745 78.4146 73.3724 79.7839 71.7009 79.7839H30.5293V43.3079H74.745Z" fill="white"/>
</mask>
<g mask="url(#mask1_2081_17027)">
<path d="M74.745 43.3079H30.5293V79.7839H74.745V43.3079Z" fill="url(#paint1_linear_2081_17027)"/>
</g>
<mask id="mask2_2081_17027" style="mask-type:luminance" maskUnits="userSpaceOnUse" x="0" y="0" width="30" height="42">
<path d="M3.04412 0H29.0245V41.8258H0V3.04785C0 1.37423 1.37255 0 3.04412 0Z" fill="white"/>
</mask>
<g mask="url(#mask2_2081_17027)">
<path d="M29.0245 0H0V41.8258H29.0245V0Z" fill="url(#paint2_linear_2081_17027)"/>
</g>
<mask id="mask3_2081_17027" style="mask-type:luminance" maskUnits="userSpaceOnUse" x="0" y="43" width="30" height="37">
<path d="M29.0245 43.3079H0V79.7839H29.0245V43.3079Z" fill="white"/>
</mask>
<g mask="url(#mask3_2081_17027)">
<path d="M29.0245 43.3079H0V79.7839H29.0245V43.3079Z" fill="url(#paint3_linear_2081_17027)"/>
</g>
<path fill-rule="evenodd" clip-rule="evenodd" d="M10.3484 20.2602C10.3876 20.1964 10.4318 20.1424 10.4857 20.0933C10.569 20.0099 10.6278 19.9755 10.6327 19.9755L10.6376 19.9706L10.6425 19.9657L16.4759 15.2541C16.618 15.1412 16.7896 15.0823 16.9563 15.0823H61.7259C62.1523 15.0823 62.4955 15.4258 62.4955 15.8528V62.9449C62.4955 63.205 62.3631 63.4356 62.167 63.5731L56.2357 68.3633C56.0592 68.5056 55.8386 68.5547 55.6327 68.5203C55.5641 68.5301 55.4906 68.5301 55.4121 68.5301H51.6572C51.6867 68.6283 51.7014 68.7363 51.7014 68.8442V69.3301C51.7014 69.924 51.2161 70.4148 50.618 70.4148H49.4465C48.8533 70.4148 48.3631 69.9289 48.3631 69.3301V68.8442C48.3631 68.7363 48.3778 68.6332 48.4072 68.5301H18.3337C18.3631 68.6283 18.3778 68.7363 18.3778 68.8442V69.3301C18.3778 69.924 17.8925 70.4148 17.2945 70.4148H16.1229C15.5298 70.4148 15.0396 69.9289 15.0396 69.3301V68.8442C15.0396 68.7363 15.0543 68.6332 15.0837 68.5301H10.9857C10.2455 68.5301 10.2161 67.7596 10.2161 67.7596V20.7804C10.2161 20.7804 10.1818 20.4712 10.3386 20.2602" fill="#E3000F"/>
<path d="M61.7403 15.8528H16.9707V62.9448H61.7403V15.8528Z" fill="white"/>
<path d="M62.1814 15.2539H16.4902V63.5778H62.1814V15.2539Z" fill="#ECECEC"/>
<path fill-rule="evenodd" clip-rule="evenodd" d="M11 20.6773L16.9706 15.8528V62.9497L11 67.7693V20.6773Z" fill="#B1B2B3"/>
<path fill-rule="evenodd" clip-rule="evenodd" d="M11 30.0958L16.9706 25.2712H47.951L41.9755 30.0958H11Z" fill="#D9DADA"/>
<path fill-rule="evenodd" clip-rule="evenodd" d="M16.9706 62.9497H61.7402L55.7696 67.7693H11L16.9706 62.9497Z" fill="#D9DADA"/>
<path fill-rule="evenodd" clip-rule="evenodd" d="M41.9746 20.6773L47.9501 15.8528V62.9497L41.9746 67.7693V20.6773Z" fill="#B1B2B3"/>
<path fill-rule="evenodd" clip-rule="evenodd" d="M59.5638 16.6234H17.2403L13.1716 19.9068H55.5001L59.5687 16.6234H59.5638ZM16.9707 15.0823H61.7403C62.1667 15.0823 62.5099 15.4258 62.5099 15.8528C62.5099 16.1129 62.3775 16.3436 62.1814 16.486L56.2501 21.2761C56.1079 21.389 55.9363 21.4479 55.7697 21.4479H11.0001C10.5736 21.4479 10.2305 21.1044 10.2305 20.6774C10.2305 20.4172 10.3579 20.1866 10.5589 20.0442L16.4952 15.2541C16.6373 15.1412 16.8089 15.0823 16.9756 15.0823H16.9707Z" fill="#97989C"/>
<path fill-rule="evenodd" clip-rule="evenodd" d="M41.9746 39.514L47.9501 34.6895H61.7393L55.7687 39.514H41.9746Z" fill="#D9DADA"/>
<path fill-rule="evenodd" clip-rule="evenodd" d="M41.9746 48.9324L47.9501 44.1128H61.7393L55.7687 48.9324H41.9746Z" fill="#D9DADA"/>
<path fill-rule="evenodd" clip-rule="evenodd" d="M41.9746 58.3509L47.9501 53.5312H61.7393L55.7687 58.3509H41.9746Z" fill="#D9DADA"/>
<path fill-rule="evenodd" clip-rule="evenodd" d="M41.9746 30.0958L47.9501 25.2712H61.7393L55.7687 30.0958H41.9746Z" fill="#D9DADA"/>
<path fill-rule="evenodd" clip-rule="evenodd" d="M55.3275 20.0441L61.2588 15.2539C61.5873 14.9889 62.0726 15.0429 62.3373 15.3717C62.45 15.514 62.5088 15.6858 62.5039 15.8527V62.9447C62.5039 63.2048 62.3716 63.4355 62.1755 63.5778L56.2441 68.368C55.9157 68.633 55.4304 68.579 55.1657 68.2502C55.053 68.1079 54.9941 67.9361 54.9941 67.7692V20.6772C54.9941 20.4171 55.1216 20.1864 55.3226 20.0441" fill="#B1B2B3"/>
<path fill-rule="evenodd" clip-rule="evenodd" d="M16.9706 15.8528H61.7402L55.7696 20.6773H11L16.9706 15.8528Z" fill="#E7E7E7"/>
<path fill-rule="evenodd" clip-rule="evenodd" d="M42.7443 21.4479V29.3252H54.9943V21.4479H42.7443ZM42.7443 38.7436H54.9943V30.8663H42.7443V38.7436ZM42.7443 48.162H54.9943V40.2847H42.7443V48.162ZM54.9943 59.1215H42.7443V66.9988H54.9943V59.1215ZM42.7443 57.5804H54.9943V49.7031H42.7443V57.5804ZM27.3472 66.9988V30.8663H41.205V67.0037H27.3472V66.9988ZM25.6266 30.8614V66.9988H11.7688V30.8663H25.6266V30.8614ZM25.6266 29.3203V21.443H11.7688V29.3203H25.6266ZM27.3472 21.443V29.3203H41.205V21.443H27.3472ZM10.2295 66.3608V20.7804C10.2295 20.7804 10.1952 20.4712 10.3521 20.2601C10.5041 20.0491 10.6413 19.9755 10.6413 19.9755C10.6413 19.9755 10.7099 19.9019 10.8962 19.9019H55.1658C55.1658 19.9019 56.5335 20.0785 56.5335 21.3006V67.5583C56.5335 68.0344 56.2835 68.535 55.4207 68.535H51.6658C51.6952 68.6331 51.7099 68.7411 51.7099 68.8491V69.335C51.7099 69.9289 51.2246 70.4196 50.6266 70.4196H49.455C48.8619 70.4196 48.3717 69.9338 48.3717 69.335V68.8491C48.3717 68.7411 48.3864 68.6381 48.4158 68.535H18.3325C18.3619 68.6331 18.3766 68.7411 18.3766 68.8491V69.335C18.3766 69.9289 17.8913 70.4196 17.2933 70.4196H16.1217C15.5286 70.4196 15.0384 69.9338 15.0384 69.335V68.8491C15.0384 68.7411 15.0531 68.6381 15.0825 68.535H10.9845C10.2443 68.535 10.2148 67.7644 10.2148 67.7644V66.3558L10.2295 66.3608Z" fill="#96979B"/>
<path d="M25.6274 21.4478H11.7695V67.0036H25.6274V21.4478Z" fill="white"/>
<path d="M41.2055 21.4478H27.3477V67.0036H41.2055V21.4478Z" fill="white"/>
<path fill-rule="evenodd" clip-rule="evenodd" d="M22.9022 40.3289H23.1326C23.5247 40.3289 23.8434 40.6479 23.8434 41.0405V47.4111C23.8434 47.8037 23.5247 48.1227 23.1326 48.1227H22.9022C22.51 48.1227 22.1914 47.8037 22.1914 47.4111V41.0405C22.1914 40.6479 22.51 40.3289 22.9022 40.3289Z" fill="#7D7D7D"/>
<path fill-rule="evenodd" clip-rule="evenodd" d="M29.8436 40.3289H30.074C30.4661 40.3289 30.7848 40.6479 30.7848 41.0405V47.4111C30.7848 47.8037 30.4661 48.1227 30.074 48.1227H29.8436C29.4514 48.1227 29.1328 47.8037 29.1328 47.4111V41.0405C29.1328 40.6479 29.4514 40.3289 29.8436 40.3289Z" fill="#7D7D7D"/>
</g>
<defs>
<linearGradient id="paint0_linear_2081_17027" x1="29.2205" y1="20.9129" x2="74.7499" y2="20.9129" gradientUnits="userSpaceOnUse">
<stop stop-color="#E41B0E"/>
<stop offset="1" stop-color="#CB081F"/>
</linearGradient>
<linearGradient id="paint1_linear_2081_17027" x1="29.0293" y1="61.5459" x2="74.7499" y2="61.5459" gradientUnits="userSpaceOnUse">
<stop stop-color="#6DB1E2"/>
<stop offset="1" stop-color="#234194"/>
</linearGradient>
<linearGradient id="paint2_linear_2081_17027" x1="0" y1="20.9129" x2="29.0245" y2="20.9129" gradientUnits="userSpaceOnUse">
<stop stop-color="#E95110"/>
<stop offset="1" stop-color="#F18500"/>
</linearGradient>
<linearGradient id="paint3_linear_2081_17027" x1="0" y1="61.5459" x2="29.0245" y2="61.5459" gradientUnits="userSpaceOnUse">
<stop stop-color="#5CB12E"/>
<stop offset="1" stop-color="#89BD21"/>
</linearGradient>
<clipPath id="clip0_2081_17027">
<rect width="75" height="80" fill="white"/>
</clipPath>
</defs>
</svg>
