<svg width="40" height="20" viewBox="0 0 40 20" fill="none" xmlns="http://www.w3.org/2000/svg">
<g opacity="0.8">
<g clip-path="url(#clip0_148_1401)">
<g opacity="0.4">
<path fill-rule="evenodd" clip-rule="evenodd" d="M37.6051 3.52832C34.4123 -0.204682 28.9659 -1.09295 24.7377 1.42754C24.5323 1.55402 24.466 1.81561 24.5894 2.02201C24.7129 2.22439 24.9794 2.29165 25.1853 2.16747C29.0495 -0.135691 34.0264 0.674957 36.9441 4.08715C39.8617 7.49705 39.8617 12.5018 36.9441 15.9169C34.0264 19.3268 29.0495 20.1386 25.1853 17.8354C24.9794 17.7106 24.7129 17.7773 24.5894 17.9797C24.466 18.1838 24.5323 18.4506 24.7377 18.573C28.9659 21.0924 34.4129 20.2075 37.6057 16.4745C40.7985 12.7404 40.7985 7.26248 37.6057 3.52947L37.6051 3.52832ZM33.235 7.60456C33.2362 5.84873 31.6343 4.68105 29.5641 4.68105H28.3233C28.0833 4.68105 27.8889 4.8725 27.8889 5.1134C27.8889 5.35429 28.0833 5.54287 28.3233 5.54287H29.5641C31.2023 5.54287 32.368 6.39491 32.368 7.57466C32.3231 8.20823 32.0127 8.8234 31.5063 9.2638C30.9998 9.69729 30.3393 9.91519 29.6708 9.86575C29.4314 9.84735 29.2231 10.0273 29.2058 10.2647C29.188 10.5005 29.3674 10.7103 29.6067 10.7281C30.5054 10.7925 31.3938 10.501 32.075 9.91519C32.7557 9.33049 33.1739 8.49685 33.2356 7.60456H33.235ZM31.6851 12.1931H29.365C29.1251 12.1931 28.9307 12.3862 28.9307 12.6225C28.9307 12.8588 29.1251 13.0531 29.365 13.0531H31.6851C31.9245 13.0531 32.1194 12.8617 32.1194 12.6225C32.1194 12.3834 31.925 12.1931 31.6851 12.1931Z" fill="#252A36"/>
</g>
<g opacity="0.7">
<path fill-rule="evenodd" clip-rule="evenodd" d="M27.6809 3.52844C24.4875 -0.20456 19.0411 -1.09282 14.8129 1.42766C14.6075 1.55414 14.5412 1.81574 14.6646 2.02213C14.7881 2.22451 15.0546 2.29178 15.2605 2.16759C19.1247 -0.135569 24.1016 0.675079 27.0193 4.08727C29.9369 7.49717 29.9369 12.5019 27.0193 15.917C24.1016 19.3269 19.1247 20.1387 15.2605 17.8355C15.0546 17.7108 14.7881 17.7774 14.6646 17.9798C14.5412 18.1839 14.6075 18.4507 14.8129 18.5731C19.0416 21.0925 24.4875 20.2077 27.6809 16.4747C30.8737 12.7405 30.8737 7.2626 27.6809 3.52959V3.52844ZM23.3108 7.60468C23.3114 5.84885 21.7101 4.68117 19.6392 4.68117H18.3985C18.1585 4.68117 17.9641 4.87262 17.9641 5.11352C17.9641 5.35441 18.1585 5.54299 18.3985 5.54299H19.6392C21.2775 5.54299 22.4432 6.39503 22.4432 7.57478C22.3982 8.20835 22.0873 8.82353 21.5809 9.26392C21.0744 9.69742 20.4139 9.91531 19.746 9.86587C19.5072 9.84747 19.2983 10.0274 19.281 10.2649C19.2632 10.5006 19.4425 10.7104 19.6819 10.7283C20.5806 10.7927 21.469 10.5012 22.1496 9.91531C22.8309 9.33061 23.2485 8.49697 23.3108 7.60468ZM21.7608 12.1932H19.4408C19.2009 12.1932 19.0065 12.3864 19.0065 12.6226C19.0065 12.8589 19.2009 13.0533 19.4408 13.0533H21.7608C22.0008 13.0533 22.1946 12.8618 22.1946 12.6226C22.1946 12.3835 22.0002 12.1932 21.7608 12.1932Z" fill="#252A36"/>
</g>
<path fill-rule="evenodd" clip-rule="evenodd" d="M10.0738 0.000854492C4.51027 0.000854492 0 4.47724 0 9.99942C0 15.5216 4.51027 19.9991 10.0738 19.9991C15.6374 19.9991 20.1477 15.5245 20.1477 9.99942C20.1477 4.47436 15.6374 0.000854492 10.0738 0.000854492ZM10.0738 19.1373C4.99019 19.1373 0.868712 15.0473 0.868712 9.99942C0.868712 4.95155 4.98962 0.86497 10.0738 0.86497C15.1581 0.86497 19.2795 4.95328 19.2795 9.99942C19.2795 15.0456 15.1581 19.1373 10.0738 19.1373ZM9.71389 4.68134H8.29949C7.82649 4.68134 7.44347 5.05907 7.44347 5.52936V12.1933H7.19543C6.95547 12.1933 6.76108 12.3865 6.76108 12.6228C6.76108 12.8591 6.95547 13.0534 7.19543 13.0534H7.44347V14.2976C7.44347 14.5379 7.63786 14.7293 7.87783 14.7293C8.11779 14.7293 8.31218 14.5379 8.31218 14.2976V13.0534H11.8355C12.0754 13.0534 12.2698 12.862 12.2698 12.6228C12.2698 12.3836 12.0754 12.1933 11.8355 12.1933H8.31218V5.54315H9.71389C11.3521 5.54315 12.5179 6.3952 12.5179 7.57495C12.3904 8.93638 11.1566 9.96837 9.74619 9.86603C9.50681 9.84764 9.29857 10.0276 9.28126 10.265C9.26338 10.5008 9.44278 10.7106 9.68216 10.7284C11.565 10.8658 13.2118 9.47968 13.3849 7.61462C13.3866 5.84902 11.7847 4.68134 9.71447 4.68134H9.71389Z" fill="#252A36"/>
</g>
</g>
<defs>
<clipPath id="clip0_148_1401">
<rect width="40" height="20" fill="white"/>
</clipPath>
</defs>
</svg>
