<svg width="28" height="28" viewBox="0 0 28 28" fill="none" xmlns="http://www.w3.org/2000/svg">
<path d="M23.9154 13.184V8.21399C23.9154 3.51233 22.8187 2.33398 18.4087 2.33398H9.5887C5.1787 2.33398 4.08203 3.51233 4.08203 8.21399V21.3506C4.08203 24.454 5.78538 25.189 7.85038 22.9723L7.86202 22.9606C8.81869 21.9456 10.277 22.0273 11.1054 23.1356L12.2837 24.7106" stroke="white" stroke-width="1.5" stroke-linecap="round" stroke-linejoin="round"/>
<path d="M21.2333 24.9667C23.2952 24.9667 24.9667 23.2952 24.9667 21.2333C24.9667 19.1715 23.2952 17.5 21.2333 17.5C19.1715 17.5 17.5 19.1715 17.5 21.2333C17.5 23.2952 19.1715 24.9667 21.2333 24.9667Z" stroke="white" stroke-width="1.5" stroke-linecap="round" stroke-linejoin="round"/>
<path d="M25.6667 25.6667L24.5 24.5" stroke="white" stroke-width="1.5" stroke-linecap="round" stroke-linejoin="round"/>
<path d="M9.33203 8.16602H18.6654" stroke="white" stroke-width="1.5" stroke-linecap="round" stroke-linejoin="round"/>
<path d="M10.5 12.834H17.5" stroke="white" stroke-width="1.5" stroke-linecap="round" stroke-linejoin="round"/>
</svg>
