<svg width="140" height="40" viewBox="0 0 140 40" fill="none" xmlns="http://www.w3.org/2000/svg">
<g clip-path="url(#clip0_70_148)">
<mask id="mask0_70_148" style="mask-type:luminance" maskUnits="userSpaceOnUse" x="0" y="0" width="40" height="40">
<path fill-rule="evenodd" clip-rule="evenodd" d="M9.82938 0.0181811L11.5215 0L29.1226 0.00727336C29.3899 0.0096976 29.5564 0.0133326 29.7218 0.0181811C30.5943 0.0412114 31.4751 0.0921211 32.338 0.248485C33.2023 0.395985 34.0403 0.672111 34.8247 1.06788C35.606 1.46546 36.3227 1.98424 36.9423 2.60606C37.5621 3.22492 38.0811 3.93924 38.4798 4.72242C38.8873 5.51879 39.1425 6.33455 39.2995 7.2097C39.4553 8.07273 39.5069 8.95273 39.5296 9.82546C39.5416 10.2255 39.5464 10.6255 39.5476 11.0267L39.55 11.7406V27.543C39.55 28.0182 39.55 28.4945 39.5476 28.9709C39.5452 29.3709 39.5416 29.7709 39.5296 30.1709C39.5057 31.0436 39.4553 31.9248 39.2995 32.7867C39.1516 33.6528 38.8753 34.4913 38.4798 35.2739C38.0808 36.0574 37.5619 36.772 36.9423 37.3915C36.3203 38.0131 35.6057 38.5322 34.8247 38.9297C34.0403 39.3255 33.2023 39.6017 32.338 39.7491C31.4751 39.9042 30.5943 39.9552 29.7218 39.9794L27.0925 40L10.4274 39.9903C10.228 39.9881 10.0287 39.9841 9.82938 39.9782C8.95693 39.9564 8.0761 39.9042 7.21324 39.7491C6.34929 39.6016 5.5117 39.3254 4.72774 38.9297C3.15848 38.1309 1.8785 36.8516 1.07018 35.2739C0.67528 34.4911 0.398955 33.6526 0.250468 32.7867C0.0946741 31.9248 0.0443408 31.0436 0.021571 30.1721C0.00958688 29.7721 0.00599237 29.3709 0.00359555 28.9709L0 28.2545V12.4545C0 11.9794 3.10836e-07 11.503 0.00359555 11.0279C0.00599237 10.6279 0.0107853 10.2279 0.021571 9.82667C0.0455392 8.95394 0.0958726 8.07394 0.250468 7.21091C0.398867 6.34494 0.675196 5.50647 1.07018 4.72364C1.87732 3.14555 3.15709 1.86599 4.72654 1.06788C5.51091 0.672095 6.3489 0.395968 7.21324 0.248485C8.0761 0.0933332 8.95693 0.0424235 9.82938 0.0181811Z" fill="white"/>
</mask>
<g mask="url(#mask0_70_148)">
<path d="M0 -0.00390625H39.4908V39.9362H0V-0.00390625Z" fill="#19AA1E"/>
<path fill-rule="evenodd" clip-rule="evenodd" d="M0 -0.00390625H39.4908V13.1001L0 6.86033V-0.00390625Z" fill="#FFB919"/>
<path fill-rule="evenodd" clip-rule="evenodd" d="M0 35.5669L39.4908 29.3271V39.9357H0V35.5669Z" fill="#82D714"/>
<path fill-rule="evenodd" clip-rule="evenodd" d="M0 6.07129L13.7846 8.24964C15.5005 7.15079 17.5419 6.54811 19.7448 6.54811C22.7961 6.54811 25.5386 7.70384 27.5345 9.73213C27.7858 9.98869 28.0227 10.2561 28.2465 10.5345L39.4908 12.3111V13.8904L29.388 12.2929C30.1442 13.7548 30.5403 15.3797 30.5427 17.0296C30.5427 19.1692 30.0701 21.3028 29.0913 23.4449L29.0626 23.5102L28.6462 24.4106H27.665C25.6356 24.4106 24.2906 25.0242 23.4099 26.1121C22.7195 26.9653 22.3198 28.1174 22.1858 29.3736L22.181 29.4123L22.1619 29.6132L22.1535 29.7004L22.1368 29.871C22.0853 30.4325 22.0518 30.9081 22.0338 31.2954L39.4908 28.5362V30.1155L0 36.3564V34.7771L17.4761 32.0155L17.4689 31.6609L17.4665 31.5616L17.4641 31.5096L17.4617 31.4309C17.4462 31.0013 17.4067 30.4507 17.3444 29.7827L17.3325 29.6556L17.3109 29.4365C17.1865 28.1731 16.7928 27.0077 16.1024 26.1412C15.2325 25.046 13.9007 24.4227 11.8868 24.4106H10.8434L10.4282 23.5102C9.43026 21.3464 8.94684 19.191 8.94684 17.0296C8.94684 14.3115 10.0369 11.683 11.9562 9.73213L12.1238 9.56634L0 7.64939V6.07129Z" fill="white"/>
<path fill-rule="evenodd" clip-rule="evenodd" d="M19.7458 8.1084C25.2596 8.1084 29.0013 12.3998 29.0013 17.03C29.0013 18.8888 28.6005 20.8227 27.6648 22.851C22.2407 22.851 20.9017 26.7793 20.648 29.2529L20.6313 29.4163C20.5463 30.2998 20.496 31.0077 20.4829 31.5402L19.0135 31.7726V31.7242C18.993 30.9377 18.9403 30.1524 18.8555 29.3703L18.8519 29.3268C18.6174 26.8592 17.3072 22.851 11.828 22.851C10.8911 20.8227 10.4902 18.8888 10.4902 17.03C10.4902 12.3998 14.2331 8.1084 19.7458 8.1084Z" fill="#0073FA"/>
</g>
<path fill-rule="evenodd" clip-rule="evenodd" d="M58.4695 7.26074C52.3861 7.26074 47.8247 10.9192 47.863 17.2727H53.5169C53.4391 14.7313 55.076 12.2661 58.4695 12.2661C61.0422 12.2661 62.6803 13.9604 62.6803 16.117C62.6803 18.351 60.8854 19.583 58.0017 20.9698C54.2193 22.7791 51.9577 23.6262 47.863 24.9732V32.29H68.9181V27.2834H55.5056C57.4596 26.4787 59.3622 25.5952 61.0817 24.7807C65.643 22.6254 68.3329 20.1989 68.3329 15.8483C68.3329 10.6106 64.3567 7.26074 58.4695 7.26074ZM77.4964 12.651H88.414V7.64558H72.0376V32.29H77.4964V12.651ZM96.9923 7.64558H91.5335V32.29H96.9528L107.13 16.5405V32.29H112.589V7.64558H107.13L96.9923 23.3951V7.64558ZM140 23.0477H134.346C133.488 25.7828 130.876 27.6695 127.796 27.6695C123.311 27.6695 120.387 23.8574 120.387 19.9678C120.387 16.0782 123.233 12.2661 127.951 12.2661C131.071 12.2661 133.488 14.154 134.346 16.8879H140C139.181 11.3815 134.776 7.26074 127.796 7.26074C120.076 7.26074 114.928 12.6134 114.928 19.9678C114.928 27.3222 120.076 32.6749 127.796 32.6749C134.776 32.6749 139.181 28.6328 140 23.0477Z" fill="#111111"/>
</g>
<defs>
<clipPath id="clip0_70_148">
<rect width="140" height="40" fill="white"/>
</clipPath>
</defs>
</svg>
