<svg width="42" height="42" viewBox="0 0 42 42" fill="none" xmlns="http://www.w3.org/2000/svg">
<path d="M15.75 38.5H26.25C35 38.5 38.5 35 38.5 26.25V15.75C38.5 7 35 3.5 26.25 3.5H15.75C7 3.5 3.5 7 3.5 15.75V26.25C3.5 35 7 38.5 15.75 38.5Z" stroke="#EF4E06" stroke-width="2" stroke-linecap="round" stroke-linejoin="round"/>
<path d="M27.2461 32.3758V25.5508" stroke="#EF4E06" stroke-width="2" stroke-miterlimit="10" stroke-linecap="round" stroke-linejoin="round"/>
<path d="M27.2461 13.0375V9.625" stroke="#EF4E06" stroke-width="2" stroke-miterlimit="10" stroke-linecap="round" stroke-linejoin="round"/>
<path d="M27.2492 22.1371C29.7621 22.1371 31.7992 20.1 31.7992 17.5871C31.7992 15.0742 29.7621 13.0371 27.2492 13.0371C24.7363 13.0371 22.6992 15.0742 22.6992 17.5871C22.6992 20.1 24.7363 22.1371 27.2492 22.1371Z" stroke="#EF4E06" stroke-width="2" stroke-miterlimit="10" stroke-linecap="round" stroke-linejoin="round"/>
<path d="M14.7539 32.3754V28.9629" stroke="#EF4E06" stroke-width="2" stroke-miterlimit="10" stroke-linecap="round" stroke-linejoin="round"/>
<path d="M14.7539 16.45V9.625" stroke="#EF4E06" stroke-width="2" stroke-miterlimit="10" stroke-linecap="round" stroke-linejoin="round"/>
<path d="M14.7531 28.9633C17.266 28.9633 19.3031 26.9262 19.3031 24.4133C19.3031 21.9004 17.266 19.8633 14.7531 19.8633C12.2402 19.8633 10.2031 21.9004 10.2031 24.4133C10.2031 26.9262 12.2402 28.9633 14.7531 28.9633Z" stroke="#EF4E06" stroke-width="2" stroke-miterlimit="10" stroke-linecap="round" stroke-linejoin="round"/>
</svg>
