<svg width="42" height="42" viewBox="0 0 42 42" fill="none" xmlns="http://www.w3.org/2000/svg">
<path d="M38.5 26.25C38.5 33.0225 33.0225 38.5 26.25 38.5L28.0875 35.4375" stroke="#EF4E06" stroke-width="2" stroke-linecap="round" stroke-linejoin="round"/>
<path d="M3.5 15.75C3.5 8.9775 8.9775 3.5 15.75 3.5L13.9125 6.5625" stroke="#EF4E06" stroke-width="2" stroke-linecap="round" stroke-linejoin="round"/>
<path d="M23.9766 7.78711L30.9416 11.8121L37.8366 7.80463" stroke="#EF4E06" stroke-width="2" stroke-linecap="round" stroke-linejoin="round"/>
<path d="M30.9414 18.935V11.7949" stroke="#EF4E06" stroke-width="2" stroke-linecap="round" stroke-linejoin="round"/>
<path d="M29.2958 3.8675L25.0958 6.19492C24.1508 6.71992 23.3633 8.04991 23.3633 9.13491V13.58C23.3633 14.665 24.1333 15.995 25.0958 16.52L29.2958 18.8475C30.1883 19.355 31.6583 19.355 32.5683 18.8475L36.7683 16.52C37.7133 15.995 38.5008 14.665 38.5008 13.58V9.13491C38.5008 8.04991 37.7308 6.71992 36.7683 6.19492L32.5683 3.8675C31.6758 3.3775 30.2058 3.3775 29.2958 3.8675Z" stroke="#EF4E06" stroke-width="2" stroke-linecap="round" stroke-linejoin="round"/>
<path d="M4.11328 27.0371L11.0608 31.0621L17.9733 27.0546" stroke="#EF4E06" stroke-width="2" stroke-linecap="round" stroke-linejoin="round"/>
<path d="M11.0625 38.185V31.0449" stroke="#EF4E06" stroke-width="2" stroke-linecap="round" stroke-linejoin="round"/>
<path d="M9.4325 23.1175L5.23251 25.4449C4.28751 25.9699 3.5 27.2999 3.5 28.3849V32.83C3.5 33.915 4.27001 35.245 5.23251 35.77L9.4325 38.0975C10.325 38.605 11.795 38.605 12.705 38.0975L16.905 35.77C17.85 35.245 18.6375 33.915 18.6375 32.83V28.3849C18.6375 27.2999 17.8675 25.9699 16.905 25.4449L12.705 23.1175C11.795 22.6275 10.325 22.6275 9.4325 23.1175Z" stroke="#EF4E06" stroke-width="2" stroke-linecap="round" stroke-linejoin="round"/>
</svg>
