<svg width="34" height="34" viewBox="0 0 34 34" fill="none" xmlns="http://www.w3.org/2000/svg">
<path d="M12.9776 15.3988C12.8359 15.3847 12.6659 15.3847 12.5101 15.3988C9.13844 15.2855 6.46094 12.523 6.46094 9.12301C6.46094 5.65217 9.26594 2.83301 12.7509 2.83301C16.2218 2.83301 19.0409 5.65217 19.0409 9.12301C19.0268 12.523 16.3493 15.2855 12.9776 15.3988Z" stroke="#EF4E06" stroke-width="2" stroke-linecap="round" stroke-linejoin="round"/>
<path d="M23.2467 5.66699C25.995 5.66699 28.205 7.89116 28.205 10.6253C28.205 13.3028 26.08 15.4845 23.4308 15.5837C23.3175 15.5695 23.19 15.5695 23.0625 15.5837" stroke="#EF4E06" stroke-width="2" stroke-linecap="round" stroke-linejoin="round"/>
<path d="M5.89352 20.627C2.46518 22.922 2.46518 26.662 5.89352 28.9428C9.78935 31.5495 16.1785 31.5495 20.0743 28.9428C23.5027 26.6478 23.5027 22.9078 20.0743 20.627C16.1927 18.0345 9.80352 18.0345 5.89352 20.627Z" stroke="#EF4E06" stroke-width="2" stroke-linecap="round" stroke-linejoin="round"/>
<path d="M25.9824 28.333C27.0024 28.1205 27.9658 27.7097 28.7591 27.1005C30.9691 25.443 30.9691 22.7088 28.7591 21.0513C27.9799 20.4563 27.0308 20.0597 26.0249 19.833" stroke="#EF4E06" stroke-width="2" stroke-linecap="round" stroke-linejoin="round"/>
</svg>
