<svg width="42" height="42" viewBox="0 0 42 42" fill="none" xmlns="http://www.w3.org/2000/svg">
<path d="M40.25 31.5C40.25 32.8125 39.8825 34.055 39.235 35.105C38.8675 35.735 38.395 36.295 37.8525 36.75C36.6275 37.8525 35.0175 38.5 33.25 38.5C31.115 38.5 29.2075 37.5375 27.9475 36.0325C27.9125 35.98 27.86 35.945 27.825 35.8925C27.615 35.6475 27.4225 35.385 27.265 35.105C26.6175 34.055 26.25 32.8125 26.25 31.5C26.25 29.295 27.265 27.3175 28.875 26.04C30.0825 25.0775 31.605 24.5 33.25 24.5C35 24.5 36.575 25.1299 37.8 26.1974C38.01 26.3549 38.2025 26.5476 38.3775 26.7401C39.5325 28.0001 40.25 29.6625 40.25 31.5Z" stroke="#EF4E06" stroke-width="2" stroke-miterlimit="10" stroke-linecap="round" stroke-linejoin="round"/>
<path d="M35.8556 31.4648H30.6406" stroke="#EF4E06" stroke-width="2" stroke-miterlimit="10" stroke-linecap="round" stroke-linejoin="round"/>
<path d="M33.25 28.9102V34.1426" stroke="#EF4E06" stroke-width="2" stroke-miterlimit="10" stroke-linecap="round" stroke-linejoin="round"/>
<path d="M5.54688 13.0195L20.9994 21.962L36.3469 13.072" stroke="#EF4E06" stroke-width="2" stroke-linecap="round" stroke-linejoin="round"/>
<path d="M21 37.8178V21.9453" stroke="#EF4E06" stroke-width="2" stroke-linecap="round" stroke-linejoin="round"/>
<path d="M37.8186 16.0475V25.9526C37.8186 26.0401 37.8186 26.11 37.8011 26.1975C36.5761 25.13 35.0011 24.5 33.2511 24.5C31.6061 24.5 30.0836 25.0775 28.8761 26.04C27.2661 27.3175 26.2511 29.295 26.2511 31.5C26.2511 32.8125 26.6186 34.055 27.2661 35.105C27.4236 35.385 27.6161 35.6476 27.8261 35.8926L24.6236 37.6601C22.6286 38.7801 19.3736 38.7801 17.3786 37.6601L8.03359 32.48C5.91609 31.3075 4.18359 28.3676 4.18359 25.9526V16.0475C4.18359 13.6325 5.91609 10.6925 8.03359 9.52004L17.3786 4.34C19.3736 3.22 22.6286 3.22 24.6236 4.34L33.9686 9.52004C36.0861 10.6925 37.8186 13.6325 37.8186 16.0475Z" stroke="#EF4E06" stroke-width="2" stroke-linecap="round" stroke-linejoin="round"/>
</svg>
