<svg width="42" height="42" viewBox="0 0 42 42" fill="none" xmlns="http://www.w3.org/2000/svg">
<path d="M5.25 15.9434V26.0409C5.25 29.7509 5.25 29.7509 8.75 32.1134L18.375 37.6784C19.8275 38.5184 22.19 38.5184 23.625 37.6784L33.25 32.1134C36.75 29.7509 36.75 29.7509 36.75 26.0584V15.9434C36.75 12.2509 36.75 12.2509 33.25 9.88836L23.625 4.32336C22.19 3.48336 19.8275 3.48336 18.375 4.32336L8.75 9.88836C5.25 12.2509 5.25 12.2509 5.25 15.9434Z" stroke="#EF4E06" stroke-width="2" stroke-linecap="round" stroke-linejoin="round"/>
<path d="M21 26.25C23.8995 26.25 26.25 23.8995 26.25 21C26.25 18.1005 23.8995 15.75 21 15.75C18.1005 15.75 15.75 18.1005 15.75 21C15.75 23.8995 18.1005 26.25 21 26.25Z" stroke="#EF4E06" stroke-width="2" stroke-linecap="round" stroke-linejoin="round"/>
</svg>
