<svg width="30" height="30" viewBox="0 0 30 30" fill="none" xmlns="http://www.w3.org/2000/svg">
<g clip-path="url(#clip0_2036_1916)">
<path d="M0 14.4C0 7.61175 0 4.21766 2.10712 2.10883C4.21424 0 7.60557 0 14.3883 0H15.5873C22.3701 0 25.7614 0 27.8686 2.10883C29.9757 4.21766 29.9757 7.61175 29.9757 14.4V15.6C29.9757 22.3883 29.9757 25.7823 27.8686 27.8912C25.7614 30 22.3701 30 15.5873 30H14.3883C7.60557 30 4.21424 30 2.10712 27.8912C0 25.7823 0 22.3883 0 15.6V14.4Z" fill="#0077FF"/>
<path d="M15.9492 21.6135C9.11723 21.6135 5.22045 16.926 5.05809 9.12598H8.48031C8.59272 14.851 11.1156 17.276 13.114 17.776V9.12598H16.3365V14.0635C18.3099 13.851 20.383 11.601 21.0824 9.12598H24.3048C23.7678 12.176 21.5196 14.426 19.9209 15.351C21.5196 16.101 24.0801 18.0635 25.0543 21.6135H21.5071C20.7452 19.2385 18.8469 17.401 16.3365 17.151V21.6135H15.9492Z" fill="white"/>
</g>
<defs>
<clipPath id="clip0_2036_1916">
<rect width="30" height="30" fill="white"/>
</clipPath>
</defs>
</svg>
