<svg width="42" height="42" viewBox="0 0 42 42" fill="none" xmlns="http://www.w3.org/2000/svg">
<path d="M33.7747 13.8601V22.8726C33.7747 28.2626 30.6947 30.5726 26.0747 30.5726H10.6922C9.90468 30.5726 9.15218 30.5027 8.45218 30.3452C8.01468 30.2752 7.59469 30.1527 7.20969 30.0127C4.58469 29.0327 2.99219 26.7576 2.99219 22.8726V13.8601C2.99219 8.47009 6.07218 6.16016 10.6922 6.16016H26.0747C29.9947 6.16016 32.8122 7.82265 33.5647 11.6201C33.6872 12.3201 33.7747 13.0376 33.7747 13.8601Z" stroke="#EF4E06" stroke-width="2" stroke-miterlimit="10" stroke-linecap="round" stroke-linejoin="round"/>
<path d="M39.0256 19.111V28.1236C39.0256 33.5136 35.9456 35.8235 31.3256 35.8235H15.9431C14.6481 35.8235 13.4756 35.6486 12.4606 35.2636C10.3781 34.4936 8.96062 32.9011 8.45312 30.3461C9.15313 30.5036 9.90562 30.5735 10.6931 30.5735H26.0756C30.6956 30.5735 33.7756 28.2636 33.7756 22.8736V13.861C33.7756 13.0385 33.7056 12.3036 33.5656 11.6211C36.8906 12.3211 39.0256 14.666 39.0256 19.111Z" stroke="#EF4E06" stroke-width="2" stroke-miterlimit="10" stroke-linecap="round" stroke-linejoin="round"/>
<path d="M18.37 22.994C20.9216 22.994 22.9901 20.9255 22.9901 18.3739C22.9901 15.8224 20.9216 13.7539 18.37 13.7539C15.8185 13.7539 13.75 15.8224 13.75 18.3739C13.75 20.9255 15.8185 22.994 18.37 22.994Z" stroke="#EF4E06" stroke-width="2" stroke-miterlimit="10" stroke-linecap="round" stroke-linejoin="round"/>
<path d="M8.36328 14.5254V22.2254" stroke="#EF4E06" stroke-width="2" stroke-miterlimit="10" stroke-linecap="round" stroke-linejoin="round"/>
<path d="M28.3867 14.5254V22.2254" stroke="#EF4E06" stroke-width="2" stroke-miterlimit="10" stroke-linecap="round" stroke-linejoin="round"/>
</svg>
