<svg width="42" height="42" viewBox="0 0 42 42" fill="none" xmlns="http://www.w3.org/2000/svg">
<path d="M31.5006 12.53C31.3956 12.5125 31.2731 12.5125 31.1681 12.53C28.7531 12.4425 26.8281 10.465 26.8281 8.015C26.8281 5.5125 28.8406 3.5 31.3431 3.5C33.8456 3.5 35.8581 5.53 35.8581 8.015C35.8406 10.465 33.9156 12.4425 31.5006 12.53Z" stroke="#EF4E06" stroke-width="2" stroke-linecap="round" stroke-linejoin="round"/>
<path d="M29.697 25.2703C32.0945 25.6728 34.737 25.2528 36.592 24.0103C39.0595 22.3653 39.0595 19.6703 36.592 18.0253C34.7195 16.7828 32.042 16.3628 29.6445 16.7828" stroke="#EF4E06" stroke-width="2" stroke-linecap="round" stroke-linejoin="round"/>
<path d="M10.4473 12.53C10.5523 12.5125 10.6748 12.5125 10.7798 12.53C13.1948 12.4425 15.1198 10.465 15.1198 8.015C15.1198 5.5125 13.1073 3.5 10.6048 3.5C8.10235 3.5 6.08984 5.53 6.08984 8.015C6.10734 10.465 8.03235 12.4425 10.4473 12.53Z" stroke="#EF4E06" stroke-width="2" stroke-linecap="round" stroke-linejoin="round"/>
<path d="M12.2495 25.2703C9.85203 25.6728 7.20953 25.2528 5.35453 24.0103C2.88703 22.3653 2.88703 19.6703 5.35453 18.0253C7.22703 16.7828 9.90453 16.3628 12.302 16.7828" stroke="#EF4E06" stroke-width="2" stroke-linecap="round" stroke-linejoin="round"/>
<path d="M21.0006 25.6023C20.8956 25.5848 20.7731 25.5848 20.6681 25.6023C18.2531 25.5148 16.3281 23.5373 16.3281 21.0873C16.3281 18.5848 18.3406 16.5723 20.8431 16.5723C23.3456 16.5723 25.3581 18.6023 25.3581 21.0873C25.3406 23.5373 23.4156 25.5323 21.0006 25.6023Z" stroke="#EF4E06" stroke-width="2" stroke-linecap="round" stroke-linejoin="round"/>
<path d="M15.9092 31.1139C13.4417 32.7589 13.4417 35.4539 15.9092 37.0989C18.7092 38.9714 23.2942 38.9714 26.0942 37.0989C28.5617 35.4539 28.5617 32.7589 26.0942 31.1139C23.3117 29.2589 18.7092 29.2589 15.9092 31.1139Z" stroke="#EF4E06" stroke-width="2" stroke-linecap="round" stroke-linejoin="round"/>
</svg>
