<svg width="42" height="42" viewBox="0 0 42 42" fill="none" xmlns="http://www.w3.org/2000/svg">
<path d="M7.45313 19.2845V27.982C7.45313 31.167 7.45312 31.167 10.4631 33.197L18.7406 37.9745C19.9831 38.692 22.0131 38.692 23.2556 37.9745L31.5331 33.197C34.5431 31.167 34.5431 31.167 34.5431 27.982V19.2845C34.5431 16.0995 34.5431 16.0995 31.5331 14.0695L23.2556 9.29203C22.0131 8.57453 19.9831 8.57453 18.7406 9.29203L10.4631 14.0695C7.45312 16.0995 7.45313 16.0995 7.45313 19.2845Z" stroke="#EF4E06" stroke-width="2" stroke-linecap="round" stroke-linejoin="round"/>
<path d="M30.625 13.3525V8.75C30.625 5.25 28.875 3.5 25.375 3.5H16.625C13.125 3.5 11.375 5.25 11.375 8.75V13.23" stroke="#EF4E06" stroke-width="2" stroke-linecap="round" stroke-linejoin="round"/>
<path d="M22.1016 19.2322L23.0991 20.7897C23.2566 21.0347 23.6066 21.2797 23.8691 21.3497L25.6541 21.8047C26.7566 22.0847 27.0541 23.0297 26.3366 23.9047L25.1641 25.3222C24.9891 25.5497 24.8491 25.9522 24.8666 26.2322L24.9716 28.0697C25.0416 29.2072 24.2366 29.7847 23.1866 29.3647L21.4716 28.6822C21.2091 28.5772 20.7716 28.5772 20.5091 28.6822L18.7941 29.3647C17.7441 29.7847 16.9391 29.1897 17.0091 28.0697L17.1141 26.2322C17.1316 25.9522 16.9916 25.5322 16.8166 25.3222L15.6441 23.9047C14.9266 23.0297 15.2241 22.0847 16.3266 21.8047L18.1116 21.3497C18.3916 21.2797 18.7416 21.0172 18.8816 20.7897L19.8791 19.2322C20.5091 18.2872 21.4891 18.2872 22.1016 19.2322Z" stroke="#EF4E06" stroke-width="2" stroke-linecap="round" stroke-linejoin="round"/>
</svg>
